G04*
G04 #@! TF.GenerationSoftware,Altium Limited,Altium Designer,22.1.2 (22)*
G04*
G04 Layer_Color=128*
%FSLAX25Y25*%
%MOIN*%
G70*
G04*
G04 #@! TF.SameCoordinates,CB40C1EA-8919-4D87-B160-AD71CDEE434D*
G04*
G04*
G04 #@! TF.FilePolarity,Positive*
G04*
G01*
G75*
%ADD31C,0.00200*%
D31*
X396728Y302000D02*
X400272D01*
X398500Y300228D02*
Y303772D01*
X396728Y312000D02*
X400272D01*
X398500Y310228D02*
Y313772D01*
X396728Y322000D02*
X400272D01*
X398500Y320228D02*
Y323772D01*
X396728Y332000D02*
X400272D01*
X398500Y330228D02*
Y333772D01*
X414000Y329000D02*
X415000D01*
X414500Y328500D02*
Y329500D01*
X414000Y323000D02*
X415000D01*
X414500Y322500D02*
Y323500D01*
X427000Y306500D02*
X428000D01*
X427500Y306000D02*
Y307000D01*
X423500Y306500D02*
X424500D01*
X424000Y306000D02*
Y307000D01*
X427000Y317000D02*
X428000D01*
X427500Y316500D02*
Y317500D01*
X409000Y316000D02*
X410000D01*
X409500Y315500D02*
Y316500D01*
X437000Y325500D02*
X438000D01*
X437500Y325000D02*
Y326000D01*
X431000Y325500D02*
X432000D01*
X431500Y325000D02*
Y326000D01*
M02*
