G04*
G04 #@! TF.GenerationSoftware,Altium Limited,Altium Designer,22.1.2 (22)*
G04*
G04 Layer_Color=65535*
%FSLAX25Y25*%
%MOIN*%
G70*
G04*
G04 #@! TF.SameCoordinates,CB40C1EA-8919-4D87-B160-AD71CDEE434D*
G04*
G04*
G04 #@! TF.FilePolarity,Positive*
G04*
G01*
G75*
%ADD10C,0.00000*%
%ADD11C,0.01000*%
%ADD12C,0.00100*%
%ADD13C,0.00787*%
%ADD14C,0.00500*%
%ADD15C,0.00800*%
G36*
X419650Y310100D02*
X419300D01*
Y311900D01*
X419650D01*
Y310100D01*
D02*
G37*
G36*
X418350Y311900D02*
X418700D01*
Y310100D01*
X418350D01*
Y311900D01*
D02*
G37*
G36*
X419650Y314883D02*
X418350D01*
X418350Y315233D01*
X419650D01*
X419650Y314883D01*
D02*
G37*
G36*
X418350Y316783D02*
X419650D01*
Y316433D01*
X418350D01*
Y316783D01*
D02*
G37*
G36*
X419650Y319717D02*
X418350D01*
X418350Y320067D01*
X419650D01*
X419650Y319717D01*
D02*
G37*
G36*
X418350Y321617D02*
X419650D01*
Y321267D01*
X418350D01*
Y321617D01*
D02*
G37*
G36*
X419650Y324550D02*
X418350D01*
X418350Y324900D01*
X419650D01*
X419650Y324550D01*
D02*
G37*
G36*
X418350Y326450D02*
X419650D01*
Y326100D01*
X418350D01*
Y326450D01*
D02*
G37*
G36*
X405431Y302323D02*
X405451D01*
X405500Y302318D01*
X405553Y302310D01*
X405609Y302298D01*
X405670Y302283D01*
X405729Y302262D01*
X405732D01*
X405737Y302259D01*
X405744Y302257D01*
X405755Y302252D01*
X405783Y302237D01*
X405818Y302219D01*
X405857Y302193D01*
X405897Y302163D01*
X405936Y302129D01*
X405971Y302089D01*
X405976Y302084D01*
X405987Y302068D01*
X406002Y302045D01*
X406022Y302012D01*
X406043Y301971D01*
X406066Y301920D01*
X406089Y301864D01*
X406107Y301800D01*
X405895Y301744D01*
Y301747D01*
X405892Y301749D01*
X405890Y301757D01*
X405887Y301767D01*
X405880Y301790D01*
X405869Y301821D01*
X405854Y301857D01*
X405836Y301890D01*
X405818Y301925D01*
X405795Y301956D01*
X405793Y301959D01*
X405785Y301969D01*
X405770Y301982D01*
X405752Y301999D01*
X405729Y302020D01*
X405698Y302040D01*
X405665Y302061D01*
X405627Y302079D01*
X405622Y302081D01*
X405609Y302086D01*
X405586Y302094D01*
X405556Y302104D01*
X405520Y302112D01*
X405479Y302119D01*
X405433Y302124D01*
X405385Y302127D01*
X405357D01*
X405344Y302124D01*
X405329D01*
X405291Y302122D01*
X405247Y302114D01*
X405199Y302106D01*
X405153Y302094D01*
X405107Y302076D01*
X405102Y302073D01*
X405087Y302068D01*
X405066Y302056D01*
X405041Y302043D01*
X405010Y302022D01*
X404977Y302002D01*
X404946Y301976D01*
X404918Y301948D01*
X404916Y301946D01*
X404906Y301936D01*
X404893Y301918D01*
X404877Y301897D01*
X404859Y301872D01*
X404842Y301841D01*
X404824Y301808D01*
X404806Y301772D01*
Y301770D01*
X404804Y301765D01*
X404801Y301757D01*
X404796Y301744D01*
X404791Y301729D01*
X404786Y301711D01*
X404778Y301691D01*
X404773Y301668D01*
X404760Y301614D01*
X404750Y301553D01*
X404742Y301489D01*
X404740Y301418D01*
Y301415D01*
Y301408D01*
Y301395D01*
X404742Y301380D01*
Y301359D01*
X404745Y301334D01*
X404747Y301308D01*
X404750Y301280D01*
X404760Y301217D01*
X404773Y301150D01*
X404793Y301084D01*
X404819Y301020D01*
Y301018D01*
X404824Y301013D01*
X404826Y301005D01*
X404834Y300995D01*
X404852Y300967D01*
X404880Y300931D01*
X404913Y300893D01*
X404954Y300854D01*
X405002Y300819D01*
X405056Y300786D01*
X405058D01*
X405063Y300783D01*
X405071Y300778D01*
X405084Y300773D01*
X405097Y300768D01*
X405115Y300763D01*
X405155Y300747D01*
X405206Y300735D01*
X405262Y300722D01*
X405324Y300712D01*
X405387Y300709D01*
X405413D01*
X405428Y300712D01*
X405443D01*
X405482Y300717D01*
X405528Y300722D01*
X405576Y300732D01*
X405630Y300747D01*
X405683Y300765D01*
X405686D01*
X405691Y300768D01*
X405696Y300770D01*
X405706Y300775D01*
X405734Y300788D01*
X405765Y300803D01*
X405800Y300821D01*
X405839Y300842D01*
X405874Y300865D01*
X405905Y300890D01*
Y301222D01*
X405385D01*
Y301431D01*
X406135D01*
Y300775D01*
X406132Y300773D01*
X406127Y300770D01*
X406117Y300763D01*
X406104Y300752D01*
X406089Y300742D01*
X406071Y300729D01*
X406048Y300714D01*
X406025Y300699D01*
X405971Y300666D01*
X405910Y300630D01*
X405846Y300597D01*
X405778Y300569D01*
X405775D01*
X405770Y300566D01*
X405760Y300564D01*
X405747Y300559D01*
X405729Y300553D01*
X405709Y300546D01*
X405686Y300541D01*
X405663Y300536D01*
X405607Y300523D01*
X405543Y300510D01*
X405474Y300503D01*
X405403Y300500D01*
X405377D01*
X405359Y300503D01*
X405336D01*
X405308Y300505D01*
X405278Y300510D01*
X405245Y300513D01*
X405171Y300528D01*
X405092Y300546D01*
X405010Y300574D01*
X404969Y300589D01*
X404928Y300610D01*
X404926Y300612D01*
X404918Y300615D01*
X404908Y300622D01*
X404893Y300630D01*
X404875Y300643D01*
X404857Y300656D01*
X404809Y300691D01*
X404757Y300737D01*
X404704Y300793D01*
X404653Y300857D01*
X404607Y300931D01*
Y300934D01*
X404602Y300941D01*
X404597Y300951D01*
X404589Y300969D01*
X404582Y300987D01*
X404574Y301013D01*
X404564Y301038D01*
X404554Y301069D01*
X404543Y301102D01*
X404533Y301140D01*
X404526Y301178D01*
X404518Y301219D01*
X404505Y301308D01*
X404500Y301403D01*
Y301405D01*
Y301415D01*
Y301428D01*
X404503Y301446D01*
Y301469D01*
X404505Y301497D01*
X404510Y301525D01*
X404513Y301558D01*
X404520Y301594D01*
X404526Y301632D01*
X404546Y301714D01*
X404571Y301798D01*
X404607Y301882D01*
X404610Y301885D01*
X404612Y301892D01*
X404617Y301903D01*
X404628Y301918D01*
X404638Y301938D01*
X404650Y301959D01*
X404686Y302007D01*
X404730Y302063D01*
X404783Y302117D01*
X404844Y302170D01*
X404880Y302193D01*
X404916Y302216D01*
X404918Y302219D01*
X404926Y302221D01*
X404936Y302226D01*
X404951Y302234D01*
X404972Y302242D01*
X404995Y302252D01*
X405020Y302262D01*
X405051Y302272D01*
X405084Y302283D01*
X405120Y302290D01*
X405158Y302300D01*
X405199Y302308D01*
X405288Y302321D01*
X405334Y302326D01*
X405415D01*
X405431Y302323D01*
D02*
G37*
G36*
X407866Y300531D02*
X407624D01*
X406701Y301915D01*
Y300531D01*
X406476D01*
Y302295D01*
X406716D01*
X407642Y300908D01*
Y302295D01*
X407866D01*
Y300531D01*
D02*
G37*
G36*
X408983Y302293D02*
X409034Y302290D01*
X409085Y302285D01*
X409136Y302277D01*
X409179Y302270D01*
X409182D01*
X409187Y302267D01*
X409195D01*
X409205Y302262D01*
X409233Y302254D01*
X409269Y302242D01*
X409309Y302224D01*
X409353Y302201D01*
X409396Y302175D01*
X409437Y302142D01*
X409439Y302140D01*
X409442Y302137D01*
X409449Y302129D01*
X409460Y302122D01*
X409485Y302096D01*
X409516Y302061D01*
X409549Y302017D01*
X409585Y301966D01*
X409618Y301908D01*
X409646Y301841D01*
Y301839D01*
X409648Y301834D01*
X409654Y301823D01*
X409656Y301808D01*
X409664Y301790D01*
X409669Y301770D01*
X409674Y301747D01*
X409682Y301719D01*
X409689Y301691D01*
X409694Y301658D01*
X409707Y301586D01*
X409715Y301507D01*
X409717Y301421D01*
Y301418D01*
Y301413D01*
Y301400D01*
Y301387D01*
X409715Y301370D01*
Y301349D01*
X409712Y301301D01*
X409705Y301245D01*
X409697Y301186D01*
X409684Y301125D01*
X409669Y301063D01*
Y301061D01*
X409666Y301056D01*
X409664Y301048D01*
X409661Y301038D01*
X409651Y301010D01*
X409636Y300974D01*
X409620Y300934D01*
X409600Y300893D01*
X409575Y300849D01*
X409549Y300809D01*
X409547Y300803D01*
X409536Y300791D01*
X409521Y300773D01*
X409501Y300750D01*
X409478Y300724D01*
X409449Y300699D01*
X409421Y300671D01*
X409388Y300648D01*
X409383Y300645D01*
X409373Y300638D01*
X409355Y300627D01*
X409330Y300615D01*
X409299Y300599D01*
X409263Y300587D01*
X409223Y300571D01*
X409177Y300559D01*
X409172D01*
X409164Y300556D01*
X409156Y300553D01*
X409131Y300551D01*
X409095Y300546D01*
X409054Y300541D01*
X409006Y300536D01*
X408952Y300533D01*
X408894Y300531D01*
X408259D01*
Y302295D01*
X408937D01*
X408983Y302293D01*
D02*
G37*
G36*
X408914Y312157D02*
X408937Y312154D01*
X408965Y312152D01*
X408993Y312149D01*
X409026Y312141D01*
X409095Y312126D01*
X409172Y312103D01*
X409210Y312088D01*
X409246Y312070D01*
X409281Y312047D01*
X409317Y312024D01*
X409319Y312021D01*
X409325Y312019D01*
X409335Y312011D01*
X409348Y311999D01*
X409360Y311986D01*
X409378Y311968D01*
X409396Y311947D01*
X409416Y311927D01*
X409437Y311902D01*
X409457Y311871D01*
X409480Y311840D01*
X409501Y311807D01*
X409518Y311769D01*
X409539Y311731D01*
X409554Y311690D01*
X409569Y311644D01*
X409340Y311591D01*
Y311593D01*
X409337Y311598D01*
X409332Y311608D01*
X409327Y311621D01*
X409322Y311636D01*
X409314Y311657D01*
X409294Y311698D01*
X409269Y311743D01*
X409238Y311789D01*
X409200Y311833D01*
X409159Y311871D01*
X409154Y311876D01*
X409138Y311886D01*
X409113Y311899D01*
X409080Y311917D01*
X409036Y311932D01*
X408988Y311947D01*
X408929Y311958D01*
X408866Y311960D01*
X408845D01*
X408833Y311958D01*
X408815D01*
X408794Y311955D01*
X408746Y311947D01*
X408692Y311937D01*
X408636Y311919D01*
X408577Y311894D01*
X408524Y311861D01*
X408521D01*
X408519Y311856D01*
X408501Y311843D01*
X408478Y311823D01*
X408450Y311792D01*
X408417Y311754D01*
X408386Y311710D01*
X408358Y311657D01*
X408333Y311598D01*
Y311596D01*
X408330Y311591D01*
X408328Y311583D01*
X408325Y311570D01*
X408320Y311555D01*
X408315Y311537D01*
X408307Y311494D01*
X408297Y311443D01*
X408287Y311386D01*
X408282Y311325D01*
X408279Y311259D01*
Y311256D01*
Y311249D01*
Y311236D01*
Y311221D01*
X408282Y311203D01*
Y311180D01*
X408284Y311154D01*
X408287Y311126D01*
X408294Y311065D01*
X408307Y310999D01*
X408322Y310933D01*
X408343Y310866D01*
Y310864D01*
X408345Y310859D01*
X408351Y310851D01*
X408356Y310838D01*
X408371Y310808D01*
X408394Y310772D01*
X408422Y310731D01*
X408458Y310688D01*
X408498Y310649D01*
X408547Y310614D01*
X408549D01*
X408555Y310611D01*
X408562Y310606D01*
X408572Y310601D01*
X408585Y310596D01*
X408600Y310588D01*
X408636Y310573D01*
X408682Y310558D01*
X408733Y310545D01*
X408789Y310535D01*
X408848Y310532D01*
X408866D01*
X408881Y310535D01*
X408899D01*
X408917Y310537D01*
X408962Y310547D01*
X409016Y310560D01*
X409070Y310581D01*
X409126Y310609D01*
X409154Y310624D01*
X409179Y310644D01*
X409182Y310647D01*
X409184Y310649D01*
X409192Y310657D01*
X409202Y310665D01*
X409212Y310678D01*
X409225Y310693D01*
X409240Y310708D01*
X409253Y310729D01*
X409269Y310752D01*
X409286Y310777D01*
X409302Y310803D01*
X409317Y310833D01*
X409330Y310866D01*
X409342Y310902D01*
X409355Y310940D01*
X409365Y310981D01*
X409600Y310922D01*
Y310920D01*
X409597Y310910D01*
X409592Y310894D01*
X409585Y310874D01*
X409577Y310851D01*
X409567Y310823D01*
X409554Y310792D01*
X409539Y310759D01*
X409503Y310688D01*
X409457Y310616D01*
X409429Y310581D01*
X409401Y310545D01*
X409371Y310514D01*
X409335Y310484D01*
X409332Y310481D01*
X409327Y310476D01*
X409314Y310471D01*
X409302Y310461D01*
X409281Y310448D01*
X409261Y310435D01*
X409233Y310423D01*
X409205Y310410D01*
X409172Y310395D01*
X409136Y310382D01*
X409098Y310369D01*
X409057Y310356D01*
X409014Y310346D01*
X408968Y310341D01*
X408919Y310336D01*
X408868Y310333D01*
X408840D01*
X408820Y310336D01*
X408797D01*
X408769Y310338D01*
X408738Y310344D01*
X408702Y310349D01*
X408629Y310361D01*
X408552Y310382D01*
X408475Y310410D01*
X408440Y310428D01*
X408404Y310448D01*
X408401Y310451D01*
X408396Y310453D01*
X408386Y310461D01*
X408376Y310471D01*
X408361Y310481D01*
X408343Y310496D01*
X408322Y310514D01*
X408302Y310535D01*
X408282Y310558D01*
X408259Y310581D01*
X408213Y310639D01*
X408170Y310708D01*
X408131Y310785D01*
Y310787D01*
X408126Y310795D01*
X408123Y310808D01*
X408116Y310823D01*
X408111Y310843D01*
X408103Y310869D01*
X408093Y310897D01*
X408085Y310928D01*
X408078Y310961D01*
X408068Y310999D01*
X408055Y311078D01*
X408044Y311167D01*
X408039Y311259D01*
Y311262D01*
Y311272D01*
Y311287D01*
X408042Y311305D01*
Y311330D01*
X408044Y311356D01*
X408047Y311389D01*
X408052Y311422D01*
X408065Y311496D01*
X408083Y311578D01*
X408108Y311659D01*
X408144Y311738D01*
X408146Y311741D01*
X408149Y311749D01*
X408154Y311759D01*
X408164Y311771D01*
X408175Y311789D01*
X408187Y311810D01*
X408220Y311856D01*
X408264Y311907D01*
X408315Y311958D01*
X408373Y312009D01*
X408442Y312052D01*
X408445Y312055D01*
X408453Y312057D01*
X408463Y312062D01*
X408475Y312070D01*
X408496Y312077D01*
X408516Y312085D01*
X408542Y312095D01*
X408570Y312106D01*
X408600Y312116D01*
X408634Y312126D01*
X408705Y312141D01*
X408786Y312154D01*
X408871Y312159D01*
X408896D01*
X408914Y312157D01*
D02*
G37*
G36*
X407134D02*
X407157Y312154D01*
X407185Y312152D01*
X407213Y312149D01*
X407246Y312141D01*
X407315Y312126D01*
X407392Y312103D01*
X407430Y312088D01*
X407466Y312070D01*
X407501Y312047D01*
X407537Y312024D01*
X407540Y312021D01*
X407545Y312019D01*
X407555Y312011D01*
X407568Y311999D01*
X407580Y311986D01*
X407598Y311968D01*
X407616Y311947D01*
X407636Y311927D01*
X407657Y311902D01*
X407677Y311871D01*
X407700Y311840D01*
X407721Y311807D01*
X407738Y311769D01*
X407759Y311731D01*
X407774Y311690D01*
X407790Y311644D01*
X407560Y311591D01*
Y311593D01*
X407557Y311598D01*
X407552Y311608D01*
X407547Y311621D01*
X407542Y311636D01*
X407535Y311657D01*
X407514Y311698D01*
X407489Y311743D01*
X407458Y311789D01*
X407420Y311833D01*
X407379Y311871D01*
X407374Y311876D01*
X407359Y311886D01*
X407333Y311899D01*
X407300Y311917D01*
X407257Y311932D01*
X407208Y311947D01*
X407149Y311958D01*
X407086Y311960D01*
X407065D01*
X407053Y311958D01*
X407035D01*
X407014Y311955D01*
X406966Y311947D01*
X406912Y311937D01*
X406856Y311919D01*
X406798Y311894D01*
X406744Y311861D01*
X406741D01*
X406739Y311856D01*
X406721Y311843D01*
X406698Y311823D01*
X406670Y311792D01*
X406637Y311754D01*
X406606Y311710D01*
X406578Y311657D01*
X406553Y311598D01*
Y311596D01*
X406550Y311591D01*
X406548Y311583D01*
X406545Y311570D01*
X406540Y311555D01*
X406535Y311537D01*
X406527Y311494D01*
X406517Y311443D01*
X406507Y311386D01*
X406502Y311325D01*
X406499Y311259D01*
Y311256D01*
Y311249D01*
Y311236D01*
Y311221D01*
X406502Y311203D01*
Y311180D01*
X406504Y311154D01*
X406507Y311126D01*
X406515Y311065D01*
X406527Y310999D01*
X406542Y310933D01*
X406563Y310866D01*
Y310864D01*
X406566Y310859D01*
X406571Y310851D01*
X406576Y310838D01*
X406591Y310808D01*
X406614Y310772D01*
X406642Y310731D01*
X406678Y310688D01*
X406718Y310649D01*
X406767Y310614D01*
X406770D01*
X406775Y310611D01*
X406782Y310606D01*
X406792Y310601D01*
X406805Y310596D01*
X406820Y310588D01*
X406856Y310573D01*
X406902Y310558D01*
X406953Y310545D01*
X407009Y310535D01*
X407068Y310532D01*
X407086D01*
X407101Y310535D01*
X407119D01*
X407137Y310537D01*
X407183Y310547D01*
X407236Y310560D01*
X407290Y310581D01*
X407346Y310609D01*
X407374Y310624D01*
X407399Y310644D01*
X407402Y310647D01*
X407404Y310649D01*
X407412Y310657D01*
X407422Y310665D01*
X407433Y310678D01*
X407445Y310693D01*
X407461Y310708D01*
X407473Y310729D01*
X407489Y310752D01*
X407506Y310777D01*
X407522Y310803D01*
X407537Y310833D01*
X407550Y310866D01*
X407563Y310902D01*
X407575Y310940D01*
X407585Y310981D01*
X407820Y310922D01*
Y310920D01*
X407818Y310910D01*
X407812Y310894D01*
X407805Y310874D01*
X407797Y310851D01*
X407787Y310823D01*
X407774Y310792D01*
X407759Y310759D01*
X407723Y310688D01*
X407677Y310616D01*
X407649Y310581D01*
X407621Y310545D01*
X407591Y310514D01*
X407555Y310484D01*
X407552Y310481D01*
X407547Y310476D01*
X407535Y310471D01*
X407522Y310461D01*
X407501Y310448D01*
X407481Y310435D01*
X407453Y310423D01*
X407425Y310410D01*
X407392Y310395D01*
X407356Y310382D01*
X407318Y310369D01*
X407277Y310356D01*
X407234Y310346D01*
X407188Y310341D01*
X407139Y310336D01*
X407088Y310333D01*
X407060D01*
X407040Y310336D01*
X407017D01*
X406989Y310338D01*
X406958Y310344D01*
X406922Y310349D01*
X406848Y310361D01*
X406772Y310382D01*
X406696Y310410D01*
X406660Y310428D01*
X406624Y310448D01*
X406622Y310451D01*
X406616Y310453D01*
X406606Y310461D01*
X406596Y310471D01*
X406581Y310481D01*
X406563Y310496D01*
X406542Y310514D01*
X406522Y310535D01*
X406502Y310558D01*
X406479Y310581D01*
X406433Y310639D01*
X406390Y310708D01*
X406351Y310785D01*
Y310787D01*
X406346Y310795D01*
X406344Y310808D01*
X406336Y310823D01*
X406331Y310843D01*
X406323Y310869D01*
X406313Y310897D01*
X406305Y310928D01*
X406298Y310961D01*
X406288Y310999D01*
X406275Y311078D01*
X406265Y311167D01*
X406259Y311259D01*
Y311262D01*
Y311272D01*
Y311287D01*
X406262Y311305D01*
Y311330D01*
X406265Y311356D01*
X406267Y311389D01*
X406272Y311422D01*
X406285Y311496D01*
X406303Y311578D01*
X406328Y311659D01*
X406364Y311738D01*
X406367Y311741D01*
X406369Y311749D01*
X406374Y311759D01*
X406385Y311771D01*
X406395Y311789D01*
X406407Y311810D01*
X406440Y311856D01*
X406484Y311907D01*
X406535Y311958D01*
X406594Y312009D01*
X406662Y312052D01*
X406665Y312055D01*
X406673Y312057D01*
X406683Y312062D01*
X406696Y312070D01*
X406716Y312077D01*
X406736Y312085D01*
X406762Y312095D01*
X406790Y312106D01*
X406820Y312116D01*
X406854Y312126D01*
X406925Y312141D01*
X407007Y312154D01*
X407091Y312159D01*
X407116D01*
X407134Y312157D01*
D02*
G37*
G36*
X405428Y310364D02*
X405183D01*
X404500Y312128D01*
X404755D01*
X405214Y310846D01*
Y310843D01*
X405217Y310838D01*
X405219Y310831D01*
X405224Y310820D01*
X405227Y310805D01*
X405232Y310790D01*
X405245Y310752D01*
X405260Y310708D01*
X405275Y310660D01*
X405306Y310558D01*
Y310560D01*
X405308Y310565D01*
X405311Y310573D01*
X405313Y310583D01*
X405321Y310611D01*
X405334Y310649D01*
X405347Y310693D01*
X405362Y310741D01*
X405380Y310792D01*
X405400Y310846D01*
X405880Y312128D01*
X406117D01*
X405428Y310364D01*
D02*
G37*
G36*
X405237Y321990D02*
X405255D01*
X405303Y321985D01*
X405357Y321977D01*
X405413Y321964D01*
X405474Y321949D01*
X405530Y321929D01*
X405533D01*
X405538Y321926D01*
X405546Y321921D01*
X405556Y321916D01*
X405581Y321903D01*
X405614Y321880D01*
X405653Y321855D01*
X405691Y321822D01*
X405726Y321783D01*
X405760Y321740D01*
Y321738D01*
X405762Y321735D01*
X405767Y321727D01*
X405772Y321720D01*
X405785Y321694D01*
X405800Y321661D01*
X405818Y321620D01*
X405831Y321572D01*
X405844Y321521D01*
X405849Y321465D01*
X405624Y321447D01*
Y321449D01*
Y321454D01*
X405622Y321462D01*
X405619Y321475D01*
X405612Y321503D01*
X405602Y321541D01*
X405586Y321582D01*
X405563Y321623D01*
X405535Y321661D01*
X405500Y321697D01*
X405494Y321699D01*
X405482Y321709D01*
X405456Y321725D01*
X405423Y321740D01*
X405380Y321755D01*
X405329Y321771D01*
X405265Y321781D01*
X405194Y321783D01*
X405158D01*
X405143Y321781D01*
X405122Y321778D01*
X405076Y321773D01*
X405025Y321763D01*
X404974Y321750D01*
X404926Y321730D01*
X404906Y321717D01*
X404885Y321704D01*
X404880Y321702D01*
X404870Y321692D01*
X404854Y321674D01*
X404839Y321653D01*
X404821Y321625D01*
X404806Y321595D01*
X404796Y321559D01*
X404791Y321518D01*
Y321513D01*
Y321503D01*
X404793Y321485D01*
X404798Y321465D01*
X404806Y321439D01*
X404819Y321414D01*
X404834Y321388D01*
X404857Y321363D01*
X404859Y321360D01*
X404872Y321352D01*
X404882Y321345D01*
X404893Y321340D01*
X404908Y321332D01*
X404926Y321322D01*
X404949Y321314D01*
X404974Y321304D01*
X405002Y321294D01*
X405035Y321281D01*
X405071Y321271D01*
X405112Y321258D01*
X405158Y321248D01*
X405209Y321235D01*
X405211D01*
X405222Y321233D01*
X405237Y321230D01*
X405255Y321225D01*
X405278Y321220D01*
X405306Y321212D01*
X405334Y321204D01*
X405364Y321197D01*
X405431Y321179D01*
X405494Y321161D01*
X405525Y321151D01*
X405553Y321141D01*
X405579Y321133D01*
X405599Y321123D01*
X405602D01*
X405607Y321120D01*
X405614Y321115D01*
X405624Y321110D01*
X405653Y321095D01*
X405686Y321075D01*
X405724Y321046D01*
X405762Y321016D01*
X405798Y320980D01*
X405829Y320942D01*
X405831Y320937D01*
X405841Y320924D01*
X405852Y320901D01*
X405867Y320870D01*
X405880Y320835D01*
X405892Y320791D01*
X405900Y320743D01*
X405902Y320692D01*
Y320689D01*
Y320687D01*
Y320679D01*
Y320669D01*
X405897Y320641D01*
X405892Y320605D01*
X405882Y320565D01*
X405869Y320521D01*
X405849Y320475D01*
X405821Y320427D01*
Y320424D01*
X405818Y320422D01*
X405806Y320406D01*
X405788Y320383D01*
X405762Y320358D01*
X405729Y320327D01*
X405688Y320294D01*
X405642Y320264D01*
X405589Y320235D01*
X405586D01*
X405581Y320233D01*
X405574Y320230D01*
X405563Y320225D01*
X405548Y320220D01*
X405530Y320213D01*
X405489Y320202D01*
X405441Y320190D01*
X405382Y320177D01*
X405319Y320169D01*
X405250Y320167D01*
X405209D01*
X405189Y320169D01*
X405165D01*
X405140Y320172D01*
X405110Y320174D01*
X405046Y320184D01*
X404979Y320195D01*
X404913Y320213D01*
X404849Y320235D01*
X404847D01*
X404842Y320238D01*
X404834Y320243D01*
X404824Y320248D01*
X404793Y320264D01*
X404757Y320286D01*
X404717Y320317D01*
X404673Y320353D01*
X404633Y320396D01*
X404594Y320445D01*
Y320447D01*
X404589Y320452D01*
X404587Y320460D01*
X404579Y320470D01*
X404574Y320483D01*
X404566Y320498D01*
X404549Y320536D01*
X404531Y320585D01*
X404515Y320638D01*
X404505Y320700D01*
X404500Y320763D01*
X404719Y320784D01*
Y320781D01*
Y320779D01*
X404722Y320771D01*
Y320761D01*
X404727Y320738D01*
X404735Y320705D01*
X404745Y320672D01*
X404755Y320633D01*
X404773Y320598D01*
X404791Y320565D01*
X404793Y320562D01*
X404801Y320552D01*
X404814Y320534D01*
X404834Y320516D01*
X404859Y320493D01*
X404888Y320470D01*
X404926Y320447D01*
X404967Y320427D01*
X404969D01*
X404972Y320424D01*
X404979Y320422D01*
X404987Y320419D01*
X405013Y320411D01*
X405046Y320401D01*
X405087Y320391D01*
X405132Y320383D01*
X405183Y320378D01*
X405239Y320376D01*
X405262D01*
X405288Y320378D01*
X405319Y320381D01*
X405354Y320386D01*
X405395Y320391D01*
X405436Y320401D01*
X405474Y320414D01*
X405479Y320417D01*
X405492Y320422D01*
X405510Y320432D01*
X405533Y320442D01*
X405556Y320460D01*
X405581Y320478D01*
X405607Y320498D01*
X405627Y320524D01*
X405630Y320526D01*
X405635Y320536D01*
X405642Y320549D01*
X405653Y320570D01*
X405663Y320590D01*
X405670Y320616D01*
X405676Y320643D01*
X405678Y320674D01*
Y320677D01*
Y320689D01*
X405676Y320705D01*
X405673Y320725D01*
X405665Y320745D01*
X405658Y320771D01*
X405645Y320796D01*
X405627Y320819D01*
X405624Y320822D01*
X405617Y320830D01*
X405607Y320840D01*
X405589Y320855D01*
X405568Y320870D01*
X405540Y320888D01*
X405507Y320906D01*
X405469Y320921D01*
X405466Y320924D01*
X405454Y320927D01*
X405433Y320934D01*
X405421Y320937D01*
X405403Y320942D01*
X405385Y320950D01*
X405362Y320955D01*
X405336Y320962D01*
X405306Y320970D01*
X405275Y320978D01*
X405239Y320988D01*
X405199Y320998D01*
X405155Y321008D01*
X405153D01*
X405145Y321011D01*
X405132Y321013D01*
X405117Y321018D01*
X405097Y321024D01*
X405074Y321029D01*
X405023Y321044D01*
X404967Y321062D01*
X404908Y321080D01*
X404857Y321097D01*
X404834Y321108D01*
X404814Y321118D01*
X404811D01*
X404809Y321120D01*
X404793Y321131D01*
X404770Y321143D01*
X404745Y321164D01*
X404714Y321187D01*
X404684Y321215D01*
X404653Y321248D01*
X404628Y321284D01*
X404625Y321289D01*
X404617Y321301D01*
X404607Y321322D01*
X404597Y321347D01*
X404587Y321380D01*
X404576Y321419D01*
X404569Y321460D01*
X404566Y321503D01*
Y321505D01*
Y321508D01*
Y321516D01*
Y321526D01*
X404571Y321551D01*
X404576Y321585D01*
X404584Y321623D01*
X404597Y321666D01*
X404615Y321709D01*
X404640Y321753D01*
Y321755D01*
X404643Y321758D01*
X404656Y321773D01*
X404673Y321794D01*
X404696Y321819D01*
X404727Y321847D01*
X404765Y321878D01*
X404811Y321906D01*
X404862Y321931D01*
X404865D01*
X404870Y321934D01*
X404877Y321936D01*
X404888Y321941D01*
X404900Y321947D01*
X404918Y321952D01*
X404956Y321962D01*
X405005Y321972D01*
X405061Y321982D01*
X405120Y321990D01*
X405186Y321992D01*
X405219D01*
X405237Y321990D01*
D02*
G37*
G36*
X409460Y320197D02*
X409195D01*
X408988Y320733D01*
X408249D01*
X408057Y320197D01*
X407810D01*
X408483Y321962D01*
X408738D01*
X409460Y320197D01*
D02*
G37*
G36*
X406948Y321959D02*
X406999Y321957D01*
X407050Y321952D01*
X407101Y321944D01*
X407144Y321936D01*
X407147D01*
X407152Y321934D01*
X407160D01*
X407170Y321929D01*
X407198Y321921D01*
X407234Y321908D01*
X407274Y321890D01*
X407318Y321867D01*
X407361Y321842D01*
X407402Y321809D01*
X407404Y321806D01*
X407407Y321804D01*
X407415Y321796D01*
X407425Y321789D01*
X407450Y321763D01*
X407481Y321727D01*
X407514Y321684D01*
X407550Y321633D01*
X407583Y321574D01*
X407611Y321508D01*
Y321505D01*
X407614Y321500D01*
X407619Y321490D01*
X407621Y321475D01*
X407629Y321457D01*
X407634Y321437D01*
X407639Y321414D01*
X407647Y321386D01*
X407654Y321357D01*
X407659Y321324D01*
X407672Y321253D01*
X407680Y321174D01*
X407682Y321087D01*
Y321085D01*
Y321080D01*
Y321067D01*
Y321054D01*
X407680Y321036D01*
Y321016D01*
X407677Y320967D01*
X407670Y320911D01*
X407662Y320853D01*
X407649Y320791D01*
X407634Y320730D01*
Y320728D01*
X407631Y320723D01*
X407629Y320715D01*
X407626Y320705D01*
X407616Y320677D01*
X407601Y320641D01*
X407585Y320600D01*
X407565Y320559D01*
X407540Y320516D01*
X407514Y320475D01*
X407512Y320470D01*
X407501Y320457D01*
X407486Y320440D01*
X407466Y320417D01*
X407443Y320391D01*
X407415Y320366D01*
X407387Y320338D01*
X407353Y320315D01*
X407348Y320312D01*
X407338Y320304D01*
X407320Y320294D01*
X407295Y320281D01*
X407264Y320266D01*
X407229Y320253D01*
X407188Y320238D01*
X407142Y320225D01*
X407137D01*
X407129Y320223D01*
X407121Y320220D01*
X407096Y320218D01*
X407060Y320213D01*
X407019Y320208D01*
X406971Y320202D01*
X406917Y320200D01*
X406859Y320197D01*
X406224D01*
Y321962D01*
X406902D01*
X406948Y321959D01*
D02*
G37*
G36*
X405237Y331823D02*
X405255D01*
X405303Y331818D01*
X405357Y331810D01*
X405413Y331798D01*
X405474Y331782D01*
X405530Y331762D01*
X405533D01*
X405538Y331760D01*
X405546Y331754D01*
X405556Y331749D01*
X405581Y331736D01*
X405614Y331714D01*
X405653Y331688D01*
X405691Y331655D01*
X405726Y331617D01*
X405760Y331573D01*
Y331571D01*
X405762Y331568D01*
X405767Y331561D01*
X405772Y331553D01*
X405785Y331527D01*
X405800Y331494D01*
X405818Y331453D01*
X405831Y331405D01*
X405844Y331354D01*
X405849Y331298D01*
X405624Y331280D01*
Y331283D01*
Y331288D01*
X405622Y331295D01*
X405619Y331308D01*
X405612Y331336D01*
X405602Y331374D01*
X405586Y331415D01*
X405563Y331456D01*
X405535Y331494D01*
X405500Y331530D01*
X405494Y331533D01*
X405482Y331543D01*
X405456Y331558D01*
X405423Y331573D01*
X405380Y331589D01*
X405329Y331604D01*
X405265Y331614D01*
X405194Y331617D01*
X405158D01*
X405143Y331614D01*
X405122Y331612D01*
X405076Y331607D01*
X405025Y331596D01*
X404974Y331583D01*
X404926Y331563D01*
X404906Y331550D01*
X404885Y331538D01*
X404880Y331535D01*
X404870Y331525D01*
X404854Y331507D01*
X404839Y331487D01*
X404821Y331459D01*
X404806Y331428D01*
X404796Y331392D01*
X404791Y331351D01*
Y331346D01*
Y331336D01*
X404793Y331318D01*
X404798Y331298D01*
X404806Y331272D01*
X404819Y331247D01*
X404834Y331221D01*
X404857Y331196D01*
X404859Y331193D01*
X404872Y331186D01*
X404882Y331178D01*
X404893Y331173D01*
X404908Y331165D01*
X404926Y331155D01*
X404949Y331148D01*
X404974Y331137D01*
X405002Y331127D01*
X405035Y331114D01*
X405071Y331104D01*
X405112Y331091D01*
X405158Y331081D01*
X405209Y331068D01*
X405211D01*
X405222Y331066D01*
X405237Y331063D01*
X405255Y331058D01*
X405278Y331053D01*
X405306Y331046D01*
X405334Y331038D01*
X405364Y331030D01*
X405431Y331012D01*
X405494Y330995D01*
X405525Y330984D01*
X405553Y330974D01*
X405579Y330966D01*
X405599Y330956D01*
X405602D01*
X405607Y330954D01*
X405614Y330949D01*
X405624Y330943D01*
X405653Y330928D01*
X405686Y330908D01*
X405724Y330880D01*
X405762Y330849D01*
X405798Y330813D01*
X405829Y330775D01*
X405831Y330770D01*
X405841Y330757D01*
X405852Y330734D01*
X405867Y330704D01*
X405880Y330668D01*
X405892Y330625D01*
X405900Y330576D01*
X405902Y330525D01*
Y330523D01*
Y330520D01*
Y330512D01*
Y330502D01*
X405897Y330474D01*
X405892Y330439D01*
X405882Y330398D01*
X405869Y330354D01*
X405849Y330309D01*
X405821Y330260D01*
Y330258D01*
X405818Y330255D01*
X405806Y330240D01*
X405788Y330217D01*
X405762Y330191D01*
X405729Y330161D01*
X405688Y330128D01*
X405642Y330097D01*
X405589Y330069D01*
X405586D01*
X405581Y330066D01*
X405574Y330064D01*
X405563Y330059D01*
X405548Y330053D01*
X405530Y330046D01*
X405489Y330036D01*
X405441Y330023D01*
X405382Y330010D01*
X405319Y330002D01*
X405250Y330000D01*
X405209D01*
X405189Y330002D01*
X405165D01*
X405140Y330005D01*
X405110Y330008D01*
X405046Y330018D01*
X404979Y330028D01*
X404913Y330046D01*
X404849Y330069D01*
X404847D01*
X404842Y330071D01*
X404834Y330077D01*
X404824Y330082D01*
X404793Y330097D01*
X404757Y330120D01*
X404717Y330150D01*
X404673Y330186D01*
X404633Y330229D01*
X404594Y330278D01*
Y330280D01*
X404589Y330286D01*
X404587Y330293D01*
X404579Y330303D01*
X404574Y330316D01*
X404566Y330331D01*
X404549Y330370D01*
X404531Y330418D01*
X404515Y330472D01*
X404505Y330533D01*
X404500Y330597D01*
X404719Y330617D01*
Y330614D01*
Y330612D01*
X404722Y330604D01*
Y330594D01*
X404727Y330571D01*
X404735Y330538D01*
X404745Y330505D01*
X404755Y330467D01*
X404773Y330431D01*
X404791Y330398D01*
X404793Y330395D01*
X404801Y330385D01*
X404814Y330367D01*
X404834Y330349D01*
X404859Y330326D01*
X404888Y330303D01*
X404926Y330280D01*
X404967Y330260D01*
X404969D01*
X404972Y330258D01*
X404979Y330255D01*
X404987Y330252D01*
X405013Y330245D01*
X405046Y330235D01*
X405087Y330224D01*
X405132Y330217D01*
X405183Y330212D01*
X405239Y330209D01*
X405262D01*
X405288Y330212D01*
X405319Y330214D01*
X405354Y330219D01*
X405395Y330224D01*
X405436Y330235D01*
X405474Y330247D01*
X405479Y330250D01*
X405492Y330255D01*
X405510Y330265D01*
X405533Y330275D01*
X405556Y330293D01*
X405581Y330311D01*
X405607Y330331D01*
X405627Y330357D01*
X405630Y330360D01*
X405635Y330370D01*
X405642Y330382D01*
X405653Y330403D01*
X405663Y330423D01*
X405670Y330449D01*
X405676Y330477D01*
X405678Y330507D01*
Y330510D01*
Y330523D01*
X405676Y330538D01*
X405673Y330558D01*
X405665Y330579D01*
X405658Y330604D01*
X405645Y330630D01*
X405627Y330653D01*
X405624Y330655D01*
X405617Y330663D01*
X405607Y330673D01*
X405589Y330689D01*
X405568Y330704D01*
X405540Y330722D01*
X405507Y330739D01*
X405469Y330755D01*
X405466Y330757D01*
X405454Y330760D01*
X405433Y330767D01*
X405421Y330770D01*
X405403Y330775D01*
X405385Y330783D01*
X405362Y330788D01*
X405336Y330796D01*
X405306Y330803D01*
X405275Y330811D01*
X405239Y330821D01*
X405199Y330831D01*
X405155Y330841D01*
X405153D01*
X405145Y330844D01*
X405132Y330847D01*
X405117Y330852D01*
X405097Y330857D01*
X405074Y330862D01*
X405023Y330877D01*
X404967Y330895D01*
X404908Y330913D01*
X404857Y330931D01*
X404834Y330941D01*
X404814Y330951D01*
X404811D01*
X404809Y330954D01*
X404793Y330964D01*
X404770Y330977D01*
X404745Y330997D01*
X404714Y331020D01*
X404684Y331048D01*
X404653Y331081D01*
X404628Y331117D01*
X404625Y331122D01*
X404617Y331135D01*
X404607Y331155D01*
X404597Y331181D01*
X404587Y331214D01*
X404576Y331252D01*
X404569Y331293D01*
X404566Y331336D01*
Y331339D01*
Y331341D01*
Y331349D01*
Y331359D01*
X404571Y331385D01*
X404576Y331418D01*
X404584Y331456D01*
X404597Y331499D01*
X404615Y331543D01*
X404640Y331586D01*
Y331589D01*
X404643Y331591D01*
X404656Y331607D01*
X404673Y331627D01*
X404696Y331652D01*
X404727Y331680D01*
X404765Y331711D01*
X404811Y331739D01*
X404862Y331765D01*
X404865D01*
X404870Y331767D01*
X404877Y331770D01*
X404888Y331775D01*
X404900Y331780D01*
X404918Y331785D01*
X404956Y331795D01*
X405005Y331805D01*
X405061Y331816D01*
X405120Y331823D01*
X405186Y331826D01*
X405219D01*
X405237Y331823D01*
D02*
G37*
G36*
X407030D02*
X407053Y331821D01*
X407081Y331818D01*
X407109Y331816D01*
X407142Y331808D01*
X407211Y331793D01*
X407287Y331770D01*
X407325Y331754D01*
X407361Y331736D01*
X407397Y331714D01*
X407433Y331691D01*
X407435Y331688D01*
X407440Y331685D01*
X407450Y331678D01*
X407463Y331665D01*
X407476Y331652D01*
X407494Y331634D01*
X407512Y331614D01*
X407532Y331594D01*
X407552Y331568D01*
X407573Y331538D01*
X407596Y331507D01*
X407616Y331474D01*
X407634Y331436D01*
X407654Y331397D01*
X407670Y331357D01*
X407685Y331311D01*
X407455Y331257D01*
Y331260D01*
X407453Y331265D01*
X407448Y331275D01*
X407443Y331288D01*
X407438Y331303D01*
X407430Y331323D01*
X407409Y331364D01*
X407384Y331410D01*
X407353Y331456D01*
X407315Y331499D01*
X407274Y331538D01*
X407269Y331543D01*
X407254Y331553D01*
X407229Y331566D01*
X407195Y331583D01*
X407152Y331599D01*
X407103Y331614D01*
X407045Y331624D01*
X406981Y331627D01*
X406961D01*
X406948Y331624D01*
X406930D01*
X406910Y331622D01*
X406861Y331614D01*
X406808Y331604D01*
X406752Y331586D01*
X406693Y331561D01*
X406639Y331527D01*
X406637D01*
X406634Y331522D01*
X406616Y331510D01*
X406594Y331489D01*
X406566Y331459D01*
X406532Y331420D01*
X406502Y331377D01*
X406474Y331323D01*
X406448Y331265D01*
Y331262D01*
X406446Y331257D01*
X406443Y331249D01*
X406440Y331237D01*
X406435Y331221D01*
X406430Y331204D01*
X406423Y331160D01*
X406413Y331109D01*
X406402Y331053D01*
X406397Y330992D01*
X406395Y330926D01*
Y330923D01*
Y330915D01*
Y330903D01*
Y330887D01*
X406397Y330870D01*
Y330847D01*
X406400Y330821D01*
X406402Y330793D01*
X406410Y330732D01*
X406423Y330665D01*
X406438Y330599D01*
X406458Y330533D01*
Y330530D01*
X406461Y330525D01*
X406466Y330518D01*
X406471Y330505D01*
X406487Y330474D01*
X406509Y330439D01*
X406537Y330398D01*
X406573Y330354D01*
X406614Y330316D01*
X406662Y330280D01*
X406665D01*
X406670Y330278D01*
X406678Y330273D01*
X406688Y330268D01*
X406701Y330263D01*
X406716Y330255D01*
X406752Y330240D01*
X406798Y330224D01*
X406848Y330212D01*
X406905Y330201D01*
X406963Y330199D01*
X406981D01*
X406996Y330201D01*
X407014D01*
X407032Y330204D01*
X407078Y330214D01*
X407132Y330227D01*
X407185Y330247D01*
X407241Y330275D01*
X407269Y330291D01*
X407295Y330311D01*
X407297Y330314D01*
X407300Y330316D01*
X407307Y330324D01*
X407318Y330331D01*
X407328Y330344D01*
X407341Y330360D01*
X407356Y330375D01*
X407369Y330395D01*
X407384Y330418D01*
X407402Y330444D01*
X407417Y330469D01*
X407433Y330500D01*
X407445Y330533D01*
X407458Y330569D01*
X407471Y330607D01*
X407481Y330648D01*
X407716Y330589D01*
Y330587D01*
X407713Y330576D01*
X407708Y330561D01*
X407700Y330541D01*
X407693Y330518D01*
X407682Y330490D01*
X407670Y330459D01*
X407654Y330426D01*
X407619Y330354D01*
X407573Y330283D01*
X407545Y330247D01*
X407517Y330212D01*
X407486Y330181D01*
X407450Y330150D01*
X407448Y330148D01*
X407443Y330143D01*
X407430Y330138D01*
X407417Y330128D01*
X407397Y330115D01*
X407376Y330102D01*
X407348Y330089D01*
X407320Y330077D01*
X407287Y330061D01*
X407252Y330048D01*
X407213Y330036D01*
X407172Y330023D01*
X407129Y330013D01*
X407083Y330008D01*
X407035Y330002D01*
X406984Y330000D01*
X406956D01*
X406935Y330002D01*
X406912D01*
X406884Y330005D01*
X406854Y330010D01*
X406818Y330015D01*
X406744Y330028D01*
X406668Y330048D01*
X406591Y330077D01*
X406555Y330094D01*
X406520Y330115D01*
X406517Y330117D01*
X406512Y330120D01*
X406502Y330128D01*
X406492Y330138D01*
X406476Y330148D01*
X406458Y330163D01*
X406438Y330181D01*
X406418Y330201D01*
X406397Y330224D01*
X406374Y330247D01*
X406328Y330306D01*
X406285Y330375D01*
X406247Y330451D01*
Y330454D01*
X406242Y330462D01*
X406239Y330474D01*
X406231Y330490D01*
X406226Y330510D01*
X406219Y330536D01*
X406209Y330563D01*
X406201Y330594D01*
X406193Y330627D01*
X406183Y330665D01*
X406170Y330745D01*
X406160Y330834D01*
X406155Y330926D01*
Y330928D01*
Y330938D01*
Y330954D01*
X406157Y330972D01*
Y330997D01*
X406160Y331023D01*
X406163Y331056D01*
X406168Y331089D01*
X406180Y331163D01*
X406198Y331244D01*
X406224Y331326D01*
X406259Y331405D01*
X406262Y331408D01*
X406265Y331415D01*
X406270Y331425D01*
X406280Y331438D01*
X406290Y331456D01*
X406303Y331476D01*
X406336Y331522D01*
X406379Y331573D01*
X406430Y331624D01*
X406489Y331675D01*
X406558Y331719D01*
X406560Y331721D01*
X406568Y331724D01*
X406578Y331729D01*
X406591Y331736D01*
X406611Y331744D01*
X406632Y331752D01*
X406657Y331762D01*
X406685Y331772D01*
X406716Y331782D01*
X406749Y331793D01*
X406820Y331808D01*
X406902Y331821D01*
X406986Y331826D01*
X407012D01*
X407030Y331823D01*
D02*
G37*
G36*
X408228Y330240D02*
X409098D01*
Y330031D01*
X407994D01*
Y331795D01*
X408228D01*
Y330240D01*
D02*
G37*
%LPC*%
G36*
X408901Y302086D02*
X408493D01*
Y300740D01*
X408912D01*
X408929Y300742D01*
X408968Y300745D01*
X409011Y300747D01*
X409057Y300752D01*
X409103Y300760D01*
X409141Y300770D01*
X409146Y300773D01*
X409159Y300775D01*
X409177Y300783D01*
X409200Y300793D01*
X409225Y300809D01*
X409251Y300824D01*
X409276Y300842D01*
X409302Y300862D01*
X409304Y300867D01*
X409314Y300877D01*
X409330Y300895D01*
X409348Y300921D01*
X409368Y300954D01*
X409391Y300992D01*
X409411Y301035D01*
X409429Y301084D01*
Y301086D01*
X409432Y301092D01*
X409434Y301099D01*
X409437Y301110D01*
X409439Y301122D01*
X409445Y301140D01*
X409449Y301158D01*
X409455Y301178D01*
X409462Y301229D01*
X409470Y301288D01*
X409475Y301354D01*
X409478Y301426D01*
Y301428D01*
Y301438D01*
Y301451D01*
X409475Y301471D01*
Y301495D01*
X409473Y301520D01*
X409470Y301551D01*
X409467Y301581D01*
X409455Y301650D01*
X409439Y301722D01*
X409416Y301788D01*
X409401Y301821D01*
X409386Y301849D01*
Y301852D01*
X409381Y301857D01*
X409376Y301864D01*
X409371Y301874D01*
X409350Y301900D01*
X409325Y301930D01*
X409291Y301964D01*
X409253Y301997D01*
X409210Y302025D01*
X409164Y302048D01*
X409159Y302050D01*
X409146Y302053D01*
X409123Y302061D01*
X409090Y302068D01*
X409049Y302073D01*
X408998Y302081D01*
X408968Y302084D01*
X408934D01*
X408901Y302086D01*
D02*
G37*
G36*
X408605Y321778D02*
Y321776D01*
X408603Y321771D01*
Y321760D01*
X408598Y321750D01*
X408595Y321732D01*
X408590Y321714D01*
X408580Y321671D01*
X408567Y321620D01*
X408549Y321564D01*
X408532Y321503D01*
X408509Y321439D01*
X408317Y320924D01*
X408914D01*
X408731Y321409D01*
Y321411D01*
X408728Y321419D01*
X408723Y321431D01*
X408718Y321447D01*
X408710Y321465D01*
X408702Y321488D01*
X408695Y321513D01*
X408684Y321539D01*
X408664Y321597D01*
X408644Y321658D01*
X408623Y321720D01*
X408605Y321778D01*
D02*
G37*
G36*
X406866Y321753D02*
X406458D01*
Y320406D01*
X406877D01*
X406894Y320409D01*
X406933Y320411D01*
X406976Y320414D01*
X407022Y320419D01*
X407068Y320427D01*
X407106Y320437D01*
X407111Y320440D01*
X407124Y320442D01*
X407142Y320450D01*
X407165Y320460D01*
X407190Y320475D01*
X407216Y320491D01*
X407241Y320508D01*
X407267Y320529D01*
X407269Y320534D01*
X407279Y320544D01*
X407295Y320562D01*
X407313Y320587D01*
X407333Y320621D01*
X407356Y320659D01*
X407376Y320702D01*
X407394Y320751D01*
Y320753D01*
X407397Y320758D01*
X407399Y320766D01*
X407402Y320776D01*
X407404Y320789D01*
X407409Y320807D01*
X407415Y320825D01*
X407420Y320845D01*
X407427Y320896D01*
X407435Y320955D01*
X407440Y321021D01*
X407443Y321092D01*
Y321095D01*
Y321105D01*
Y321118D01*
X407440Y321138D01*
Y321161D01*
X407438Y321187D01*
X407435Y321217D01*
X407433Y321248D01*
X407420Y321317D01*
X407404Y321388D01*
X407381Y321454D01*
X407366Y321488D01*
X407351Y321516D01*
Y321518D01*
X407346Y321523D01*
X407341Y321531D01*
X407336Y321541D01*
X407315Y321567D01*
X407290Y321597D01*
X407257Y321630D01*
X407218Y321663D01*
X407175Y321692D01*
X407129Y321714D01*
X407124Y321717D01*
X407111Y321720D01*
X407088Y321727D01*
X407055Y321735D01*
X407014Y321740D01*
X406963Y321748D01*
X406933Y321750D01*
X406899D01*
X406866Y321753D01*
D02*
G37*
%LPD*%
D10*
X439618Y322905D02*
G03*
X439618Y322905I-394J0D01*
G01*
D11*
X393000Y296500D02*
Y337500D01*
Y296500D02*
X442500D01*
Y337500D01*
X393000D02*
X442500D01*
D12*
X418350Y321617D02*
X419650D01*
Y321267D02*
Y321617D01*
X418350Y321267D02*
X419650D01*
X418350D02*
Y321617D01*
X419650Y320067D02*
X419650Y319717D01*
X418350Y320067D02*
X419650D01*
X418350Y319717D02*
X418350Y320067D01*
X418350Y319717D02*
X419650D01*
X418350Y311900D02*
X418700D01*
X418350Y310100D02*
X418700D01*
Y311900D01*
X418350Y310100D02*
Y311900D01*
X419650Y310100D02*
Y311900D01*
X419300Y310100D02*
Y311900D01*
X419650D01*
X419300Y310100D02*
X419650D01*
X418350Y316783D02*
X419650D01*
Y316433D02*
Y316783D01*
X418350Y316433D02*
X419650D01*
X418350D02*
Y316783D01*
X419650Y315233D02*
X419650Y314883D01*
X418350Y315233D02*
X419650D01*
X418350Y314883D02*
X418350Y315233D01*
X418350Y314883D02*
X419650D01*
X418350Y326450D02*
X419650D01*
Y326100D02*
Y326450D01*
X418350Y326100D02*
X419650D01*
X418350D02*
Y326450D01*
X419650Y324900D02*
X419650Y324550D01*
X418350Y324900D02*
X419650D01*
X418350Y324550D02*
X418350Y324900D01*
X418350Y324550D02*
X419650D01*
D13*
X393500Y337000D02*
X403500D01*
Y297000D02*
Y337000D01*
X393500Y297000D02*
Y337000D01*
Y297000D02*
X403500D01*
D14*
X429579Y312079D02*
Y321921D01*
X439421Y312079D02*
Y321921D01*
D15*
X412399Y304774D02*
X413400D01*
X412399Y299174D02*
Y304774D01*
Y299174D02*
X413400D01*
X413499Y304774D02*
X418799D01*
X413400Y299374D02*
Y304774D01*
Y299174D02*
X418799D01*
X422199Y304774D02*
X427599D01*
Y304574D02*
Y304774D01*
Y299174D02*
Y304574D01*
X427499Y299174D02*
X427599D01*
X422199D02*
X427499D01*
M02*
