G04*
G04 #@! TF.GenerationSoftware,Altium Limited,Altium Designer,22.1.2 (22)*
G04*
G04 Layer_Physical_Order=2*
G04 Layer_Color=16711680*
%FSLAX25Y25*%
%MOIN*%
G70*
G04*
G04 #@! TF.SameCoordinates,CB40C1EA-8919-4D87-B160-AD71CDEE434D*
G04*
G04*
G04 #@! TF.FilePolarity,Positive*
G04*
G01*
G75*
%ADD11C,0.01000*%
%ADD28C,0.06693*%
%ADD29R,0.06693X0.06693*%
%ADD30C,0.02000*%
G36*
X442500Y296500D02*
X393000D01*
Y337500D01*
X442500D01*
Y296500D01*
D02*
G37*
%LPC*%
G36*
X402247Y335747D02*
X394754D01*
Y328254D01*
X402247D01*
Y335747D01*
D02*
G37*
G36*
X414779Y330400D02*
X414221D01*
X413707Y330187D01*
X413313Y329793D01*
X413100Y329278D01*
Y328721D01*
X413313Y328207D01*
X413707Y327813D01*
X414221Y327600D01*
X414779D01*
X415293Y327813D01*
X415562Y328082D01*
X427620D01*
X430100Y325602D01*
Y325221D01*
X430313Y324707D01*
X430603Y324418D01*
X430459Y323933D01*
X430449Y323918D01*
X415562D01*
X415293Y324187D01*
X414779Y324400D01*
X414221D01*
X413707Y324187D01*
X413313Y323793D01*
X413100Y323278D01*
Y322722D01*
X413313Y322207D01*
X413707Y321813D01*
X414221Y321600D01*
X414779D01*
X415293Y321813D01*
X415562Y322082D01*
X432000D01*
X432351Y322152D01*
X432649Y322351D01*
X434880Y324582D01*
X436438D01*
X436707Y324313D01*
X437221Y324100D01*
X437779D01*
X438293Y324313D01*
X438687Y324707D01*
X438900Y325221D01*
Y325779D01*
X438687Y326293D01*
X438293Y326687D01*
X437779Y326900D01*
X437221D01*
X436707Y326687D01*
X436438Y326418D01*
X434500D01*
X434149Y326348D01*
X433851Y326149D01*
X433400Y325698D01*
X433189Y325732D01*
X432863Y325868D01*
X432687Y326293D01*
X432293Y326687D01*
X431778Y326900D01*
X431398D01*
X428649Y329649D01*
X428351Y329848D01*
X428000Y329918D01*
X415562D01*
X415293Y330187D01*
X414779Y330400D01*
D02*
G37*
G36*
X398993Y325746D02*
X398007D01*
X397054Y325491D01*
X396200Y324998D01*
X395502Y324300D01*
X395009Y323446D01*
X394754Y322493D01*
Y321507D01*
X395009Y320554D01*
X395502Y319700D01*
X396200Y319002D01*
X397054Y318509D01*
X398007Y318253D01*
X398993D01*
X399946Y318509D01*
X400800Y319002D01*
X401498Y319700D01*
X401991Y320554D01*
X402247Y321507D01*
Y322493D01*
X401991Y323446D01*
X401498Y324300D01*
X400800Y324998D01*
X399946Y325491D01*
X398993Y325746D01*
D02*
G37*
G36*
Y315746D02*
X398007D01*
X397054Y315491D01*
X396200Y314998D01*
X395502Y314300D01*
X395009Y313446D01*
X394754Y312493D01*
Y311507D01*
X395009Y310554D01*
X395502Y309700D01*
X396200Y309002D01*
X397054Y308509D01*
X398007Y308254D01*
X398993D01*
X399946Y308509D01*
X400800Y309002D01*
X401498Y309700D01*
X401991Y310554D01*
X402247Y311507D01*
Y312493D01*
X401991Y313446D01*
X401498Y314300D01*
X400800Y314998D01*
X399946Y315491D01*
X398993Y315746D01*
D02*
G37*
G36*
X427778Y318400D02*
X427221D01*
X426707Y318187D01*
X426313Y317793D01*
X426100Y317279D01*
Y316722D01*
X426313Y316207D01*
X426582Y315938D01*
Y307562D01*
X426313Y307293D01*
X426100Y306779D01*
Y306222D01*
X426313Y305707D01*
X426707Y305313D01*
X427221Y305100D01*
X427778D01*
X428293Y305313D01*
X428687Y305707D01*
X428900Y306222D01*
Y306779D01*
X428687Y307293D01*
X428418Y307562D01*
Y315938D01*
X428687Y316207D01*
X428900Y316722D01*
Y317279D01*
X428687Y317793D01*
X428293Y318187D01*
X427778Y318400D01*
D02*
G37*
G36*
X409778Y317400D02*
X409222D01*
X408707Y317187D01*
X408313Y316793D01*
X408100Y316279D01*
Y315722D01*
X408313Y315207D01*
X408582Y314938D01*
Y312000D01*
X408652Y311649D01*
X408851Y311351D01*
X414351Y305851D01*
X414649Y305652D01*
X415000Y305582D01*
X422938D01*
X423207Y305313D01*
X423722Y305100D01*
X424278D01*
X424793Y305313D01*
X425187Y305707D01*
X425400Y306222D01*
Y306779D01*
X425187Y307293D01*
X424793Y307687D01*
X424278Y307900D01*
X423722D01*
X423207Y307687D01*
X422938Y307418D01*
X415380D01*
X410418Y312380D01*
Y314938D01*
X410687Y315207D01*
X410900Y315722D01*
Y316279D01*
X410687Y316793D01*
X410293Y317187D01*
X409778Y317400D01*
D02*
G37*
G36*
X398993Y305747D02*
X398007D01*
X397054Y305491D01*
X396200Y304998D01*
X395502Y304300D01*
X395009Y303446D01*
X394754Y302493D01*
Y301507D01*
X395009Y300554D01*
X395502Y299700D01*
X396200Y299002D01*
X397054Y298509D01*
X398007Y298253D01*
X398993D01*
X399946Y298509D01*
X400800Y299002D01*
X401498Y299700D01*
X401991Y300554D01*
X402247Y301507D01*
Y302493D01*
X401991Y303446D01*
X401498Y304300D01*
X400800Y304998D01*
X399946Y305491D01*
X398993Y305747D01*
D02*
G37*
%LPD*%
D11*
X414500Y329000D02*
X428000D01*
X431500Y325500D01*
X434500D02*
X437500D01*
X432000Y323000D02*
X434500Y325500D01*
X414500Y323000D02*
X432000D01*
X427500Y306500D02*
Y317000D01*
X415000Y306500D02*
X424000D01*
X409500Y312000D02*
X415000Y306500D01*
X409500Y312000D02*
Y316000D01*
D28*
X398500Y302000D02*
D03*
Y312000D02*
D03*
Y322000D02*
D03*
D29*
Y332000D02*
D03*
D30*
X414500Y329000D02*
D03*
Y323000D02*
D03*
X427500Y306500D02*
D03*
X424000D02*
D03*
X427500Y317000D02*
D03*
X409500Y316000D02*
D03*
X437500Y325500D02*
D03*
X431500D02*
D03*
M02*
