%TF.GenerationSoftware,Altium Limited,Altium Designer,22.1.2 (22)*%
G04 Layer_Physical_Order=1*
G04 Layer_Color=255*
%FSLAX26Y26*%
%MOIN*%
%TF.SameCoordinates,5B9E2C2C-6987-46B3-98D1-A965B82E178F*%
%TF.FilePolarity,Positive*%
%TF.FileFunction,Copper,L1,Top,Signal*%
%TF.Part,Single*%
G01*
G75*
%TA.AperFunction,SMDPad,CuDef*%
G04:AMPARAMS|DCode=10|XSize=20mil|YSize=20mil|CornerRadius=5mil|HoleSize=0mil|Usage=FLASHONLY|Rotation=90.000|XOffset=0mil|YOffset=0mil|HoleType=Round|Shape=RoundedRectangle|*
%AMROUNDEDRECTD10*
21,1,0.020000,0.010000,0,0,90.0*
21,1,0.010000,0.020000,0,0,90.0*
1,1,0.010000,0.005000,0.005000*
1,1,0.010000,0.005000,-0.005000*
1,1,0.010000,-0.005000,-0.005000*
1,1,0.010000,-0.005000,0.005000*
%
%ADD10ROUNDEDRECTD10*%
%ADD11R,0.009842X0.021654*%
%ADD12R,0.066929X0.039370*%
%ADD13R,0.050000X0.035000*%
G04:AMPARAMS|DCode=14|XSize=50mil|YSize=35mil|CornerRadius=0mil|HoleSize=0mil|Usage=FLASHONLY|Rotation=180.000|XOffset=0mil|YOffset=0mil|HoleType=Round|Shape=Octagon|*
%AMOCTAGOND14*
4,1,8,-0.025000,0.008750,-0.025000,-0.008750,-0.016250,-0.017500,0.016250,-0.017500,0.025000,-0.008750,0.025000,0.008750,0.016250,0.017500,-0.016250,0.017500,-0.025000,0.008750,0.0*
%
%ADD14OCTAGOND14*%

%TA.AperFunction,Conductor*%
%ADD15C,0.010000*%
%TA.AperFunction,ComponentPad*%
%ADD16C,0.066929*%
%ADD17R,0.066929X0.066929*%
%TA.AperFunction,ViaPad*%
%ADD18C,0.020000*%
G36*
X4425000Y2965000D02*
X4295048D01*
X4292977Y2970000D01*
X4301489Y2978511D01*
X4303478Y2981488D01*
X4304176Y2985000D01*
Y3045000D01*
X4303478Y3048512D01*
X4301489Y3051489D01*
X4289000Y3063977D01*
Y3067785D01*
X4286869Y3072930D01*
X4282930Y3076869D01*
X4277785Y3079000D01*
X4272215D01*
X4267070Y3076869D01*
X4263131Y3072930D01*
X4261000Y3067785D01*
Y3062215D01*
X4263131Y3057070D01*
X4267070Y3053131D01*
X4272215Y3051000D01*
X4276023D01*
X4285824Y3041199D01*
Y2988801D01*
X4281199Y2984176D01*
X4179659D01*
X4179176Y2984659D01*
Y2998241D01*
X4188245D01*
X4198995Y3008991D01*
Y3030491D01*
X4188245Y3041241D01*
X4179176D01*
Y3096966D01*
X4181489Y3098511D01*
X4183478Y3101488D01*
X4184176Y3105000D01*
Y3115000D01*
X4183478Y3118512D01*
X4181933Y3120824D01*
X4182690Y3123562D01*
X4184001Y3125824D01*
X4195999D01*
X4197310Y3123562D01*
X4198067Y3120824D01*
X4196522Y3118512D01*
X4195824Y3115000D01*
Y3105000D01*
X4196522Y3101488D01*
X4198511Y3098511D01*
X4201488Y3096522D01*
X4205000Y3095824D01*
X4211199D01*
X4218511Y3088511D01*
X4221488Y3086522D01*
X4225000Y3085824D01*
X4325000D01*
X4328512Y3086522D01*
X4331489Y3088511D01*
X4341567Y3098590D01*
X4343557Y3101567D01*
X4344168Y3104640D01*
X4344493Y3105434D01*
X4346831Y3108913D01*
X4349255Y3108914D01*
X4363764D01*
Y3108913D01*
X4365607D01*
Y3108914D01*
X4383449D01*
Y3122458D01*
X4383704Y3123740D01*
X4383449Y3125023D01*
Y3138567D01*
X4368501D01*
X4365755Y3143567D01*
X4367163Y3146315D01*
X4382465D01*
Y3193685D01*
X4367163D01*
X4365755Y3196433D01*
X4368501Y3201433D01*
X4383449D01*
Y3214660D01*
X4383783Y3216338D01*
Y3243984D01*
X4386869Y3247070D01*
X4389000Y3252215D01*
Y3257785D01*
X4386869Y3262930D01*
X4382930Y3266869D01*
X4377785Y3269000D01*
X4372215D01*
X4367070Y3266869D01*
X4363131Y3262930D01*
X4361000Y3257785D01*
Y3252215D01*
X4363131Y3247070D01*
X4365430Y3244771D01*
Y3235396D01*
X4363764Y3231087D01*
X4360430Y3231086D01*
X4345921Y3231087D01*
X4340921Y3231086D01*
X4326236Y3231087D01*
X4324570Y3235396D01*
Y3244771D01*
X4326869Y3247070D01*
X4329000Y3252215D01*
Y3257785D01*
X4326869Y3262930D01*
X4322930Y3266869D01*
X4317785Y3269000D01*
X4312215D01*
X4307070Y3266869D01*
X4303131Y3262930D01*
X4301000Y3257785D01*
Y3252215D01*
X4303131Y3247070D01*
X4306217Y3243984D01*
Y3216338D01*
X4306551Y3214660D01*
Y3201433D01*
X4324394Y3201433D01*
X4329394Y3201433D01*
X4341184Y3201433D01*
X4343930Y3196433D01*
X4342522Y3193685D01*
X4307535D01*
Y3179176D01*
X4285623D01*
X4282930Y3181869D01*
X4277785Y3184000D01*
X4272215D01*
X4267070Y3181869D01*
X4263131Y3177930D01*
X4261000Y3172785D01*
Y3167215D01*
X4263131Y3162070D01*
X4267070Y3158131D01*
X4272215Y3156000D01*
X4277785D01*
X4282930Y3158131D01*
X4285623Y3160824D01*
X4307535D01*
Y3146315D01*
X4342522D01*
X4343930Y3143567D01*
X4341184Y3138567D01*
X4329394D01*
X4326236Y3138567D01*
Y3138567D01*
X4324393D01*
Y3138567D01*
X4306551D01*
Y3125340D01*
X4306217Y3123662D01*
Y3104195D01*
X4306199Y3104176D01*
X4228801D01*
X4224176Y3108801D01*
Y3115000D01*
X4223478Y3118512D01*
X4221489Y3121489D01*
X4219176Y3123034D01*
Y3145300D01*
X4221489Y3146845D01*
X4223478Y3149822D01*
X4224176Y3153333D01*
Y3163333D01*
X4223478Y3166845D01*
X4221489Y3169822D01*
X4219176Y3171367D01*
Y3193633D01*
X4221489Y3195178D01*
X4223478Y3198155D01*
X4224176Y3201666D01*
Y3211666D01*
X4223478Y3215178D01*
X4221489Y3218155D01*
X4219176Y3219700D01*
Y3241966D01*
X4221489Y3243511D01*
X4223478Y3246488D01*
X4224176Y3250000D01*
Y3260000D01*
X4223478Y3263511D01*
X4221489Y3266488D01*
X4218512Y3268477D01*
X4215000Y3269176D01*
X4205000D01*
X4201488Y3268477D01*
X4198511Y3266488D01*
X4196522Y3263511D01*
X4195824Y3260000D01*
Y3250000D01*
X4196522Y3246488D01*
X4198511Y3243511D01*
X4200824Y3241966D01*
Y3219700D01*
X4198511Y3218155D01*
X4196522Y3215178D01*
X4195824Y3211666D01*
Y3201666D01*
X4196522Y3198155D01*
X4198511Y3195178D01*
X4200824Y3193633D01*
Y3171367D01*
X4198511Y3169822D01*
X4196522Y3166845D01*
X4195824Y3163333D01*
Y3153333D01*
X4196522Y3149822D01*
X4196953Y3149176D01*
X4194281Y3144176D01*
X4185719D01*
X4183047Y3149176D01*
X4183478Y3149822D01*
X4184176Y3153333D01*
Y3163333D01*
X4183478Y3166845D01*
X4181489Y3169822D01*
X4178512Y3171811D01*
X4175000Y3172510D01*
X4165000D01*
X4161488Y3171811D01*
X4158511Y3169822D01*
X4157523Y3168343D01*
X4106456D01*
X4102930Y3171869D01*
X4097785Y3174000D01*
X4092215D01*
X4087070Y3171869D01*
X4083131Y3167930D01*
X4081000Y3162785D01*
Y3157215D01*
X4083131Y3152070D01*
X4086025Y3149176D01*
X4084593Y3144331D01*
X4084492Y3144176D01*
X4050000D01*
X4046488Y3143478D01*
X4043511Y3141489D01*
X4031199Y3129176D01*
X4021327D01*
X4019911Y3134461D01*
X4014979Y3143004D01*
X4008004Y3149979D01*
X3999461Y3154911D01*
X3989932Y3157465D01*
X3980068D01*
X3970539Y3154911D01*
X3961996Y3149979D01*
X3955021Y3143004D01*
X3950089Y3134461D01*
X3947535Y3124932D01*
Y3115068D01*
X3950089Y3105539D01*
X3955021Y3096996D01*
X3961996Y3090021D01*
X3970539Y3085089D01*
X3980068Y3082535D01*
X3989932D01*
X3999461Y3085089D01*
X4008004Y3090021D01*
X4014979Y3096996D01*
X4019911Y3105539D01*
X4021327Y3110824D01*
X4035000D01*
X4038512Y3111522D01*
X4041489Y3113511D01*
X4053801Y3125824D01*
X4155999D01*
X4157310Y3123562D01*
X4158067Y3120824D01*
X4156522Y3118512D01*
X4155824Y3115000D01*
Y3105000D01*
X4156522Y3101488D01*
X4158511Y3098511D01*
X4160824Y3096966D01*
Y3041241D01*
X4151745D01*
X4140995Y3030491D01*
Y3029047D01*
X4021362D01*
X4019911Y3034461D01*
X4014979Y3043004D01*
X4008004Y3049979D01*
X3999461Y3054911D01*
X3989932Y3057465D01*
X3980068D01*
X3970539Y3054911D01*
X3961996Y3049979D01*
X3955021Y3043004D01*
X3950089Y3034461D01*
X3947535Y3024932D01*
Y3015068D01*
X3950089Y3005539D01*
X3955021Y2996996D01*
X3961996Y2990021D01*
X3970539Y2985089D01*
X3980068Y2982535D01*
X3989932D01*
X3999461Y2985089D01*
X4008004Y2990021D01*
X4014979Y2996996D01*
X4019911Y3005539D01*
X4021293Y3010694D01*
X4140995D01*
Y3008991D01*
X4151745Y2998241D01*
X4160824D01*
Y2980858D01*
X4161522Y2977346D01*
X4163511Y2974369D01*
X4167881Y2970000D01*
X4165810Y2965000D01*
X3930000D01*
Y3375000D01*
X4425000D01*
Y2965000D01*
D02*
G37*
%LPC*%
G36*
X4022465Y3357465D02*
X3947535D01*
Y3282535D01*
X4022465D01*
Y3310824D01*
X4061199D01*
X4091012Y3281011D01*
X4123512Y3248511D01*
X4126489Y3246522D01*
X4130000Y3245823D01*
X4130297D01*
X4132717Y3240823D01*
X4131415Y3239176D01*
X4125000D01*
X4121488Y3238478D01*
X4118511Y3236489D01*
X4096199Y3214176D01*
X4053801D01*
X4041489Y3226489D01*
X4038512Y3228478D01*
X4035000Y3229176D01*
X4021327D01*
X4019911Y3234461D01*
X4014979Y3243004D01*
X4008004Y3249979D01*
X3999461Y3254911D01*
X3989932Y3257465D01*
X3980068D01*
X3970539Y3254911D01*
X3961996Y3249979D01*
X3955021Y3243004D01*
X3950089Y3234461D01*
X3947535Y3224932D01*
Y3215068D01*
X3950089Y3205539D01*
X3955021Y3196996D01*
X3961996Y3190021D01*
X3970539Y3185089D01*
X3980068Y3182535D01*
X3989932D01*
X3999461Y3185089D01*
X4008004Y3190021D01*
X4014979Y3196996D01*
X4019911Y3205539D01*
X4021327Y3210824D01*
X4031199D01*
X4043511Y3198511D01*
X4046488Y3196522D01*
X4050000Y3195824D01*
X4158080D01*
X4158511Y3195178D01*
X4161488Y3193189D01*
X4165000Y3192490D01*
X4175000D01*
X4178512Y3193189D01*
X4181489Y3195178D01*
X4183478Y3198155D01*
X4184176Y3201666D01*
Y3211666D01*
X4183478Y3215178D01*
X4181489Y3218155D01*
X4178512Y3220144D01*
X4175000Y3220843D01*
X4165000D01*
X4161488Y3220144D01*
X4161451Y3220119D01*
X4157442Y3223454D01*
X4159000Y3227215D01*
Y3232785D01*
X4157208Y3237111D01*
X4158258Y3240630D01*
X4159271Y3242599D01*
X4159741Y3242689D01*
X4161488Y3241522D01*
X4165000Y3240823D01*
X4175000D01*
X4178512Y3241522D01*
X4181489Y3243511D01*
X4183478Y3246488D01*
X4184176Y3250000D01*
Y3260000D01*
X4183478Y3263511D01*
X4181489Y3266488D01*
X4178512Y3268477D01*
X4175000Y3269176D01*
X4165000D01*
X4161488Y3268477D01*
X4158511Y3266488D01*
X4156966Y3264176D01*
X4133801D01*
X4121773Y3276204D01*
X4123686Y3280824D01*
X4134377D01*
X4137070Y3278131D01*
X4142215Y3276000D01*
X4147785D01*
X4152930Y3278131D01*
X4156869Y3282070D01*
X4159000Y3287215D01*
Y3292785D01*
X4156869Y3297930D01*
X4152930Y3301869D01*
X4147785Y3304000D01*
X4142215D01*
X4137070Y3301869D01*
X4134377Y3299176D01*
X4100000D01*
X4099000Y3298977D01*
X4071489Y3326489D01*
X4068512Y3328478D01*
X4065000Y3329176D01*
X4022465D01*
Y3357465D01*
D02*
G37*
G36*
X4242785Y3079000D02*
X4237215D01*
X4232070Y3076869D01*
X4228131Y3072930D01*
X4226000Y3067785D01*
Y3062215D01*
X4228131Y3057070D01*
X4230824Y3054377D01*
Y3041241D01*
X4210995D01*
Y2998241D01*
X4268995D01*
Y3041241D01*
X4249176D01*
Y3054377D01*
X4251869Y3057070D01*
X4254000Y3062215D01*
Y3067785D01*
X4251869Y3072930D01*
X4247930Y3076869D01*
X4242785Y3079000D01*
D02*
G37*
%LPD*%
D10*
X4170000Y3206666D02*
D03*
X4210000D02*
D03*
Y3110000D02*
D03*
X4170000D02*
D03*
Y3158333D02*
D03*
X4210000D02*
D03*
X4170000Y3255000D02*
D03*
X4210000D02*
D03*
D11*
X4374528Y3216260D02*
D03*
X4354842D02*
D03*
X4335158D02*
D03*
X4315472D02*
D03*
X4374528Y3123740D02*
D03*
X4354842D02*
D03*
X4335158D02*
D03*
X4315472D02*
D03*
D12*
X4345000Y3170000D02*
D03*
D13*
X4239995Y3019741D02*
D03*
D14*
X4169995D02*
D03*
D15*
X4100000Y3290000D02*
X4145000D01*
X4097500Y3287500D02*
X4130000Y3255000D01*
X4065000Y3320000D02*
X4097500Y3287500D01*
X4100000Y3290000D01*
X4100000Y3205000D02*
X4125000Y3230000D01*
X4145000D01*
X4100000Y3205000D02*
X4168334D01*
X4050000D02*
X4100000D01*
X4168334D02*
X4170000Y3206666D01*
X4210000D02*
Y3255000D01*
X3985000Y3320000D02*
X4065000D01*
X4130000Y3255000D02*
X4170000D01*
X3985000Y3120000D02*
X4035000D01*
X4050000Y3135000D01*
X4209167D01*
X4169995Y3019741D02*
X4170000Y3019736D01*
X4169866Y3019870D02*
X4169995Y3019741D01*
X4170000Y3019746D02*
Y3110000D01*
X4169995Y3019741D02*
X4170000Y3019746D01*
Y2980858D02*
X4175858Y2975000D01*
X4170000Y2980858D02*
Y3019736D01*
X4175858Y2975000D02*
X4285000D01*
X4295000Y2985000D01*
Y3045000D01*
X4275000Y3065000D02*
X4295000Y3045000D01*
X4239995Y3019741D02*
X4240000Y3019746D01*
Y3065000D01*
X4275000Y3170000D02*
X4345000D01*
X4095833Y3159167D02*
X4169167D01*
X4170000Y3158333D01*
X4095000Y3160000D02*
X4095833Y3159167D01*
X4374528Y3216260D02*
X4374606Y3216338D01*
Y3254606D01*
X4375000Y3255000D01*
X4315000D02*
X4315394Y3254606D01*
Y3216338D02*
X4315472Y3216260D01*
X4315394Y3216338D02*
Y3254606D01*
X4210000Y3134167D02*
Y3158333D01*
Y3110000D02*
Y3134167D01*
X4209167Y3135000D02*
X4210000Y3134167D01*
X4335079Y3105079D02*
Y3123662D01*
X4335158Y3123740D01*
X4325000Y3095000D02*
X4335079Y3105079D01*
X4310000Y3095000D02*
X4325000D01*
X4225000D02*
X4310000D01*
X4210000Y3110000D02*
X4225000Y3095000D01*
X4315394Y3123662D02*
X4315472Y3123740D01*
X4315394Y3100394D02*
Y3123662D01*
X4310000Y3095000D02*
X4315394Y3100394D01*
X3985000Y3020000D02*
X3985130Y3019870D01*
X4169866D01*
X4354842Y3123740D02*
X4374528D01*
X4345000Y3170000D02*
X4354842Y3160157D01*
Y3123740D02*
Y3160157D01*
Y3179843D02*
Y3216260D01*
X4345000Y3170000D02*
X4354842Y3179843D01*
X4210000Y3158333D02*
Y3206666D01*
X3985000Y3220000D02*
X4035000D01*
X4050000Y3205000D01*
D16*
X3985000Y3020000D02*
D03*
Y3120000D02*
D03*
Y3220000D02*
D03*
D17*
Y3320000D02*
D03*
D18*
X4145000Y3290000D02*
D03*
Y3230000D02*
D03*
X4275000Y3065000D02*
D03*
X4240000D02*
D03*
X4275000Y3170000D02*
D03*
X4095000Y3160000D02*
D03*
X4375000Y3255000D02*
D03*
X4315000D02*
D03*
%TF.MD5,115ae9924492342001e896f66ffd1a32*%
M02*
