G04*
G04 #@! TF.GenerationSoftware,Altium Limited,Altium Designer,22.1.2 (22)*
G04*
G04 Layer_Physical_Order=1*
G04 Layer_Color=255*
%FSLAX25Y25*%
%MOIN*%
G70*
G04*
G04 #@! TF.SameCoordinates,CB40C1EA-8919-4D87-B160-AD71CDEE434D*
G04*
G04*
G04 #@! TF.FilePolarity,Positive*
G04*
G01*
G75*
%ADD11C,0.01000*%
G04:AMPARAMS|DCode=16|XSize=20mil|YSize=20mil|CornerRadius=5mil|HoleSize=0mil|Usage=FLASHONLY|Rotation=90.000|XOffset=0mil|YOffset=0mil|HoleType=Round|Shape=RoundedRectangle|*
%AMROUNDEDRECTD16*
21,1,0.02000,0.01000,0,0,90.0*
21,1,0.01000,0.02000,0,0,90.0*
1,1,0.01000,0.00500,0.00500*
1,1,0.01000,0.00500,-0.00500*
1,1,0.01000,-0.00500,-0.00500*
1,1,0.01000,-0.00500,0.00500*
%
%ADD16ROUNDEDRECTD16*%
%ADD17R,0.00984X0.02165*%
%ADD18R,0.06693X0.03937*%
%ADD19R,0.05000X0.03500*%
G04:AMPARAMS|DCode=20|XSize=50mil|YSize=35mil|CornerRadius=0mil|HoleSize=0mil|Usage=FLASHONLY|Rotation=180.000|XOffset=0mil|YOffset=0mil|HoleType=Round|Shape=Octagon|*
%AMOCTAGOND20*
4,1,8,-0.02500,0.00875,-0.02500,-0.00875,-0.01625,-0.01750,0.01625,-0.01750,0.02500,-0.00875,0.02500,0.00875,0.01625,0.01750,-0.01625,0.01750,-0.02500,0.00875,0.0*
%
%ADD20OCTAGOND20*%

%ADD28C,0.06693*%
%ADD29R,0.06693X0.06693*%
%ADD30C,0.02000*%
G36*
X442500Y296500D02*
X429505D01*
X429298Y297000D01*
X430149Y297851D01*
X430348Y298149D01*
X430418Y298500D01*
Y304500D01*
X430348Y304851D01*
X430149Y305149D01*
X428900Y306398D01*
Y306779D01*
X428687Y307293D01*
X428293Y307687D01*
X427778Y307900D01*
X427221D01*
X426707Y307687D01*
X426313Y307293D01*
X426100Y306779D01*
Y306222D01*
X426313Y305707D01*
X426707Y305313D01*
X427221Y305100D01*
X427602D01*
X428582Y304120D01*
Y298880D01*
X428120Y298418D01*
X417966D01*
X417918Y298466D01*
Y299824D01*
X418824D01*
X419900Y300899D01*
Y303049D01*
X418824Y304124D01*
X417918D01*
Y309697D01*
X418149Y309851D01*
X418348Y310149D01*
X418418Y310500D01*
Y311500D01*
X418348Y311851D01*
X418193Y312082D01*
X418269Y312356D01*
X418400Y312582D01*
X419600D01*
X419731Y312356D01*
X419807Y312082D01*
X419652Y311851D01*
X419582Y311500D01*
Y310500D01*
X419652Y310149D01*
X419851Y309851D01*
X420149Y309652D01*
X420500Y309582D01*
X421120D01*
X421851Y308851D01*
X422149Y308652D01*
X422500Y308582D01*
X432500D01*
X432851Y308652D01*
X433149Y308851D01*
X434157Y309859D01*
X434356Y310157D01*
X434417Y310464D01*
X434449Y310543D01*
X434683Y310891D01*
X434926Y310891D01*
X436376D01*
Y310891D01*
X436561D01*
Y310891D01*
X438345D01*
Y312246D01*
X438370Y312374D01*
X438345Y312502D01*
Y313857D01*
X436850D01*
X436576Y314357D01*
X436716Y314632D01*
X438246D01*
Y319369D01*
X436716D01*
X436576Y319643D01*
X436850Y320143D01*
X438345D01*
Y321466D01*
X438378Y321634D01*
Y324398D01*
X438687Y324707D01*
X438900Y325221D01*
Y325779D01*
X438687Y326293D01*
X438293Y326687D01*
X437779Y326900D01*
X437221D01*
X436707Y326687D01*
X436313Y326293D01*
X436100Y325779D01*
Y325221D01*
X436313Y324707D01*
X436543Y324477D01*
Y323540D01*
X436376Y323109D01*
X436043Y323109D01*
X434592Y323109D01*
X434092Y323109D01*
X432624Y323109D01*
X432457Y323540D01*
Y324477D01*
X432687Y324707D01*
X432900Y325221D01*
Y325779D01*
X432687Y326293D01*
X432293Y326687D01*
X431778Y326900D01*
X431221D01*
X430707Y326687D01*
X430313Y326293D01*
X430100Y325779D01*
Y325221D01*
X430313Y324707D01*
X430622Y324398D01*
Y321634D01*
X430655Y321466D01*
Y320143D01*
X432439Y320143D01*
X432939Y320143D01*
X434118Y320143D01*
X434393Y319643D01*
X434252Y319369D01*
X430754D01*
Y317918D01*
X428562D01*
X428293Y318187D01*
X427778Y318400D01*
X427221D01*
X426707Y318187D01*
X426313Y317793D01*
X426100Y317279D01*
Y316722D01*
X426313Y316207D01*
X426707Y315813D01*
X427221Y315600D01*
X427778D01*
X428293Y315813D01*
X428562Y316082D01*
X430754D01*
Y314632D01*
X434252D01*
X434393Y314357D01*
X434118Y313857D01*
X432939D01*
X432624Y313857D01*
Y313857D01*
X432439D01*
Y313857D01*
X430655D01*
Y312534D01*
X430622Y312366D01*
Y310420D01*
X430620Y310418D01*
X422880D01*
X422418Y310880D01*
Y311500D01*
X422348Y311851D01*
X422149Y312149D01*
X421918Y312303D01*
Y314530D01*
X422149Y314685D01*
X422348Y314982D01*
X422418Y315333D01*
Y316333D01*
X422348Y316685D01*
X422149Y316982D01*
X421918Y317137D01*
Y319363D01*
X422149Y319518D01*
X422348Y319815D01*
X422418Y320167D01*
Y321167D01*
X422348Y321518D01*
X422149Y321815D01*
X421918Y321970D01*
Y324197D01*
X422149Y324351D01*
X422348Y324649D01*
X422418Y325000D01*
Y326000D01*
X422348Y326351D01*
X422149Y326649D01*
X421851Y326848D01*
X421500Y326918D01*
X420500D01*
X420149Y326848D01*
X419851Y326649D01*
X419652Y326351D01*
X419582Y326000D01*
Y325000D01*
X419652Y324649D01*
X419851Y324351D01*
X420082Y324197D01*
Y321970D01*
X419851Y321815D01*
X419652Y321518D01*
X419582Y321167D01*
Y320167D01*
X419652Y319815D01*
X419851Y319518D01*
X420082Y319363D01*
Y317137D01*
X419851Y316982D01*
X419652Y316685D01*
X419582Y316333D01*
Y315333D01*
X419652Y314982D01*
X419695Y314918D01*
X419428Y314418D01*
X418572D01*
X418305Y314918D01*
X418348Y314982D01*
X418418Y315333D01*
Y316333D01*
X418348Y316685D01*
X418149Y316982D01*
X417851Y317181D01*
X417500Y317251D01*
X416500D01*
X416149Y317181D01*
X415851Y316982D01*
X415752Y316834D01*
X410646D01*
X410293Y317187D01*
X409778Y317400D01*
X409222D01*
X408707Y317187D01*
X408313Y316793D01*
X408100Y316279D01*
Y315722D01*
X408313Y315207D01*
X408603Y314918D01*
X408459Y314433D01*
X408449Y314418D01*
X405000D01*
X404649Y314348D01*
X404351Y314149D01*
X403120Y312918D01*
X402133D01*
X401991Y313446D01*
X401498Y314300D01*
X400800Y314998D01*
X399946Y315491D01*
X398993Y315746D01*
X398007D01*
X397054Y315491D01*
X396200Y314998D01*
X395502Y314300D01*
X395009Y313446D01*
X394754Y312493D01*
Y311507D01*
X395009Y310554D01*
X395502Y309700D01*
X396200Y309002D01*
X397054Y308509D01*
X398007Y308254D01*
X398993D01*
X399946Y308509D01*
X400800Y309002D01*
X401498Y309700D01*
X401991Y310554D01*
X402133Y311082D01*
X403500D01*
X403851Y311152D01*
X404149Y311351D01*
X405380Y312582D01*
X415600D01*
X415731Y312356D01*
X415807Y312082D01*
X415652Y311851D01*
X415582Y311500D01*
Y310500D01*
X415652Y310149D01*
X415851Y309851D01*
X416082Y309697D01*
Y304124D01*
X415174D01*
X414100Y303049D01*
Y302905D01*
X402136D01*
X401991Y303446D01*
X401498Y304300D01*
X400800Y304998D01*
X399946Y305491D01*
X398993Y305747D01*
X398007D01*
X397054Y305491D01*
X396200Y304998D01*
X395502Y304300D01*
X395009Y303446D01*
X394754Y302493D01*
Y301507D01*
X395009Y300554D01*
X395502Y299700D01*
X396200Y299002D01*
X397054Y298509D01*
X398007Y298253D01*
X398993D01*
X399946Y298509D01*
X400800Y299002D01*
X401498Y299700D01*
X401991Y300554D01*
X402129Y301069D01*
X414100D01*
Y300899D01*
X415174Y299824D01*
X416082D01*
Y298086D01*
X416152Y297735D01*
X416351Y297437D01*
X416788Y297000D01*
X416581Y296500D01*
X393000D01*
Y337500D01*
X442500D01*
Y296500D01*
D02*
G37*
%LPC*%
G36*
X402247Y335747D02*
X394754D01*
Y328254D01*
X402247D01*
Y331082D01*
X406120D01*
X409101Y328101D01*
X412351Y324851D01*
X412649Y324652D01*
X413000Y324582D01*
X413030D01*
X413272Y324082D01*
X413141Y323918D01*
X412500D01*
X412149Y323848D01*
X411851Y323649D01*
X409620Y321418D01*
X405380D01*
X404149Y322649D01*
X403851Y322848D01*
X403500Y322918D01*
X402133D01*
X401991Y323446D01*
X401498Y324300D01*
X400800Y324998D01*
X399946Y325491D01*
X398993Y325746D01*
X398007D01*
X397054Y325491D01*
X396200Y324998D01*
X395502Y324300D01*
X395009Y323446D01*
X394754Y322493D01*
Y321507D01*
X395009Y320554D01*
X395502Y319700D01*
X396200Y319002D01*
X397054Y318509D01*
X398007Y318253D01*
X398993D01*
X399946Y318509D01*
X400800Y319002D01*
X401498Y319700D01*
X401991Y320554D01*
X402133Y321082D01*
X403120D01*
X404351Y319851D01*
X404649Y319652D01*
X405000Y319582D01*
X415808D01*
X415851Y319518D01*
X416149Y319319D01*
X416500Y319249D01*
X417500D01*
X417851Y319319D01*
X418149Y319518D01*
X418348Y319815D01*
X418418Y320167D01*
Y321167D01*
X418348Y321518D01*
X418149Y321815D01*
X417851Y322014D01*
X417500Y322084D01*
X416500D01*
X416149Y322014D01*
X416145Y322012D01*
X415744Y322345D01*
X415900Y322722D01*
Y323278D01*
X415721Y323711D01*
X415826Y324063D01*
X415927Y324260D01*
X415974Y324269D01*
X416149Y324152D01*
X416500Y324082D01*
X417500D01*
X417851Y324152D01*
X418149Y324351D01*
X418348Y324649D01*
X418418Y325000D01*
Y326000D01*
X418348Y326351D01*
X418149Y326649D01*
X417851Y326848D01*
X417500Y326918D01*
X416500D01*
X416149Y326848D01*
X415851Y326649D01*
X415697Y326418D01*
X413380D01*
X412177Y327620D01*
X412369Y328082D01*
X413438D01*
X413707Y327813D01*
X414221Y327600D01*
X414779D01*
X415293Y327813D01*
X415687Y328207D01*
X415900Y328721D01*
Y329278D01*
X415687Y329793D01*
X415293Y330187D01*
X414779Y330400D01*
X414221D01*
X413707Y330187D01*
X413438Y329918D01*
X410000D01*
X409900Y329898D01*
X407149Y332649D01*
X406851Y332848D01*
X406500Y332918D01*
X402247D01*
Y335747D01*
D02*
G37*
G36*
X424278Y307900D02*
X423722D01*
X423207Y307687D01*
X422813Y307293D01*
X422600Y306779D01*
Y306222D01*
X422813Y305707D01*
X423082Y305438D01*
Y304124D01*
X421100D01*
Y299824D01*
X426899D01*
Y304124D01*
X424918D01*
Y305438D01*
X425187Y305707D01*
X425400Y306222D01*
Y306779D01*
X425187Y307293D01*
X424793Y307687D01*
X424278Y307900D01*
D02*
G37*
%LPD*%
D11*
X410000Y329000D02*
X414500D01*
X409750Y328750D02*
X413000Y325500D01*
X406500Y332000D02*
X409750Y328750D01*
X410000Y329000D01*
X410000Y320500D02*
X412500Y323000D01*
X414500D01*
X410000Y320500D02*
X416833D01*
X405000D02*
X410000D01*
X416833D02*
X417000Y320667D01*
X421000D02*
Y325500D01*
X398500Y332000D02*
X406500D01*
X413000Y325500D02*
X417000D01*
X398500Y312000D02*
X403500D01*
X405000Y313500D01*
X420917D01*
X416999Y301974D02*
X417000Y301974D01*
X416987Y301987D02*
X416999Y301974D01*
X417000Y301975D02*
Y311000D01*
X416999Y301974D02*
X417000Y301975D01*
Y298086D02*
X417586Y297500D01*
X417000Y298086D02*
Y301974D01*
X417586Y297500D02*
X428500D01*
X429500Y298500D01*
Y304500D01*
X427500Y306500D02*
X429500Y304500D01*
X424000Y301974D02*
X424000Y301975D01*
Y306500D01*
X427500Y317000D02*
X434500D01*
X409583Y315917D02*
X416917D01*
X417000Y315833D01*
X409500Y316000D02*
X409583Y315917D01*
X437453Y321626D02*
X437461Y321634D01*
Y325461D01*
X437500Y325500D01*
X431500D02*
X431539Y325461D01*
Y321634D02*
X431547Y321626D01*
X431539Y321634D02*
Y325461D01*
X421000Y313417D02*
Y315833D01*
Y311000D02*
Y313417D01*
X420917Y313500D02*
X421000Y313417D01*
X433508Y310508D02*
Y312366D01*
X433516Y312374D01*
X432500Y309500D02*
X433508Y310508D01*
X431000Y309500D02*
X432500D01*
X422500D02*
X431000D01*
X421000Y311000D02*
X422500Y309500D01*
X431539Y312366D02*
X431547Y312374D01*
X431539Y310039D02*
Y312366D01*
X431000Y309500D02*
X431539Y310039D01*
X398500Y302000D02*
X398513Y301987D01*
X416987D01*
X435484Y312374D02*
X437453D01*
X434500Y317000D02*
X435484Y316016D01*
Y312374D02*
Y316016D01*
Y317984D02*
Y321626D01*
X434500Y317000D02*
X435484Y317984D01*
X421000Y315833D02*
Y320667D01*
X398500Y322000D02*
X403500D01*
X405000Y320500D01*
D16*
X417000Y320667D02*
D03*
X421000D02*
D03*
Y311000D02*
D03*
X417000D02*
D03*
Y315833D02*
D03*
X421000D02*
D03*
X417000Y325500D02*
D03*
X421000D02*
D03*
D17*
X437453Y321626D02*
D03*
X435484D02*
D03*
X433516D02*
D03*
X431547D02*
D03*
X437453Y312374D02*
D03*
X435484D02*
D03*
X433516D02*
D03*
X431547D02*
D03*
D18*
X434500Y317000D02*
D03*
D19*
X424000Y301974D02*
D03*
D20*
X416999D02*
D03*
D28*
X398500Y302000D02*
D03*
Y312000D02*
D03*
Y322000D02*
D03*
D29*
Y332000D02*
D03*
D30*
X414500Y329000D02*
D03*
Y323000D02*
D03*
X427500Y306500D02*
D03*
X424000D02*
D03*
X427500Y317000D02*
D03*
X409500Y316000D02*
D03*
X437500Y325500D02*
D03*
X431500D02*
D03*
M02*
