%TF.GenerationSoftware,Altium Limited,Altium Designer,22.1.2 (22)*%
G04 Layer_Color=65535*
%FSLAX26Y26*%
%MOIN*%
%TF.SameCoordinates,5B9E2C2C-6987-46B3-98D1-A965B82E178F*%
%TF.FilePolarity,Positive*%
%TF.FileFunction,Legend,Top*%
%TF.Part,Single*%
G01*
G75*
%TA.AperFunction,NonConductor*%
%ADD19C,0.010000*%
%ADD22C,0.000000*%
%ADD23C,0.001000*%
%ADD24C,0.007874*%
%ADD25C,0.005000*%
%ADD26C,0.008000*%
G36*
X4196500Y3101000D02*
X4193000D01*
Y3119000D01*
X4196500D01*
Y3101000D01*
D02*
G37*
G36*
X4183500Y3119000D02*
X4187000D01*
Y3101000D01*
X4183500D01*
Y3119000D01*
D02*
G37*
G36*
X4196500Y3148833D02*
X4183500D01*
X4183500Y3152333D01*
X4196500D01*
X4196500Y3148833D01*
D02*
G37*
G36*
X4183500Y3167833D02*
X4196500D01*
Y3164333D01*
X4183500D01*
Y3167833D01*
D02*
G37*
G36*
X4196500Y3197166D02*
X4183500D01*
X4183500Y3200666D01*
X4196500D01*
X4196500Y3197166D01*
D02*
G37*
G36*
X4183500Y3216166D02*
X4196500D01*
Y3212666D01*
X4183500D01*
Y3216166D01*
D02*
G37*
G36*
X4196500Y3245500D02*
X4183500D01*
X4183500Y3249000D01*
X4196500D01*
X4196500Y3245500D01*
D02*
G37*
G36*
X4183500Y3264500D02*
X4196500D01*
Y3261000D01*
X4183500D01*
Y3264500D01*
D02*
G37*
G36*
X4054307Y3023233D02*
X4054512D01*
X4054996Y3023182D01*
X4055532Y3023105D01*
X4056093Y3022977D01*
X4056704Y3022825D01*
X4057291Y3022620D01*
X4057316D01*
X4057367Y3022595D01*
X4057444Y3022570D01*
X4057546Y3022519D01*
X4057827Y3022365D01*
X4058184Y3022187D01*
X4058566Y3021932D01*
X4058974Y3021626D01*
X4059356Y3021294D01*
X4059713Y3020887D01*
X4059765Y3020836D01*
X4059867Y3020682D01*
X4060019Y3020453D01*
X4060224Y3020122D01*
X4060427Y3019713D01*
X4060657Y3019204D01*
X4060887Y3018642D01*
X4061065Y3018005D01*
X4058948Y3017444D01*
Y3017470D01*
X4058923Y3017495D01*
X4058898Y3017572D01*
X4058872Y3017673D01*
X4058796Y3017903D01*
X4058693Y3018209D01*
X4058541Y3018566D01*
X4058362Y3018898D01*
X4058184Y3019255D01*
X4057954Y3019561D01*
X4057928Y3019586D01*
X4057852Y3019688D01*
X4057699Y3019816D01*
X4057521Y3019994D01*
X4057291Y3020198D01*
X4056985Y3020402D01*
X4056653Y3020606D01*
X4056271Y3020785D01*
X4056220Y3020810D01*
X4056093Y3020861D01*
X4055863Y3020938D01*
X4055557Y3021039D01*
X4055200Y3021116D01*
X4054792Y3021193D01*
X4054333Y3021244D01*
X4053849Y3021269D01*
X4053568D01*
X4053441Y3021244D01*
X4053287D01*
X4052905Y3021218D01*
X4052472Y3021142D01*
X4051987Y3021065D01*
X4051528Y3020938D01*
X4051069Y3020759D01*
X4051018Y3020733D01*
X4050865Y3020682D01*
X4050661Y3020555D01*
X4050406Y3020427D01*
X4050100Y3020224D01*
X4049769Y3020019D01*
X4049463Y3019765D01*
X4049182Y3019484D01*
X4049157Y3019459D01*
X4049055Y3019356D01*
X4048927Y3019178D01*
X4048774Y3018974D01*
X4048595Y3018719D01*
X4048417Y3018413D01*
X4048238Y3018081D01*
X4048060Y3017724D01*
Y3017699D01*
X4048035Y3017648D01*
X4048009Y3017572D01*
X4047958Y3017444D01*
X4047907Y3017291D01*
X4047856Y3017113D01*
X4047780Y3016909D01*
X4047729Y3016679D01*
X4047601Y3016144D01*
X4047499Y3015532D01*
X4047423Y3014894D01*
X4047397Y3014180D01*
Y3014155D01*
Y3014078D01*
Y3013950D01*
X4047423Y3013798D01*
Y3013593D01*
X4047448Y3013338D01*
X4047474Y3013084D01*
X4047499Y3012803D01*
X4047601Y3012166D01*
X4047729Y3011503D01*
X4047932Y3010840D01*
X4048188Y3010202D01*
Y3010177D01*
X4048238Y3010126D01*
X4048264Y3010049D01*
X4048340Y3009947D01*
X4048519Y3009666D01*
X4048800Y3009309D01*
X4049131Y3008927D01*
X4049539Y3008544D01*
X4050023Y3008188D01*
X4050559Y3007856D01*
X4050584D01*
X4050635Y3007831D01*
X4050712Y3007780D01*
X4050840Y3007729D01*
X4050967Y3007677D01*
X4051146Y3007626D01*
X4051553Y3007474D01*
X4052064Y3007346D01*
X4052624Y3007218D01*
X4053236Y3007117D01*
X4053874Y3007091D01*
X4054129D01*
X4054282Y3007117D01*
X4054435D01*
X4054818Y3007168D01*
X4055276Y3007218D01*
X4055761Y3007320D01*
X4056296Y3007474D01*
X4056832Y3007652D01*
X4056858D01*
X4056909Y3007677D01*
X4056959Y3007703D01*
X4057061Y3007754D01*
X4057342Y3007881D01*
X4057648Y3008035D01*
X4058005Y3008213D01*
X4058387Y3008417D01*
X4058744Y3008646D01*
X4059050Y3008901D01*
Y3012216D01*
X4053849D01*
Y3014307D01*
X4061345D01*
Y3007754D01*
X4061320Y3007729D01*
X4061269Y3007703D01*
X4061167Y3007626D01*
X4061039Y3007524D01*
X4060887Y3007423D01*
X4060708Y3007295D01*
X4060479Y3007142D01*
X4060249Y3006989D01*
X4059713Y3006657D01*
X4059102Y3006300D01*
X4058464Y3005969D01*
X4057776Y3005689D01*
X4057750D01*
X4057699Y3005663D01*
X4057597Y3005637D01*
X4057470Y3005586D01*
X4057291Y3005535D01*
X4057087Y3005459D01*
X4056858Y3005408D01*
X4056628Y3005357D01*
X4056067Y3005229D01*
X4055430Y3005102D01*
X4054741Y3005026D01*
X4054027Y3005000D01*
X4053772D01*
X4053593Y3005026D01*
X4053364D01*
X4053084Y3005051D01*
X4052778Y3005102D01*
X4052446Y3005128D01*
X4051706Y3005280D01*
X4050916Y3005459D01*
X4050100Y3005740D01*
X4049692Y3005892D01*
X4049284Y3006097D01*
X4049258Y3006122D01*
X4049182Y3006148D01*
X4049080Y3006224D01*
X4048927Y3006300D01*
X4048749Y3006428D01*
X4048570Y3006555D01*
X4048086Y3006912D01*
X4047575Y3007372D01*
X4047040Y3007932D01*
X4046530Y3008570D01*
X4046071Y3009309D01*
Y3009335D01*
X4046020Y3009412D01*
X4045969Y3009514D01*
X4045892Y3009692D01*
X4045816Y3009870D01*
X4045740Y3010126D01*
X4045637Y3010381D01*
X4045535Y3010686D01*
X4045434Y3011018D01*
X4045331Y3011401D01*
X4045255Y3011783D01*
X4045178Y3012191D01*
X4045051Y3013084D01*
X4045000Y3014027D01*
Y3014052D01*
Y3014155D01*
Y3014282D01*
X4045026Y3014461D01*
Y3014690D01*
X4045051Y3014970D01*
X4045102Y3015251D01*
X4045128Y3015582D01*
X4045204Y3015939D01*
X4045255Y3016322D01*
X4045459Y3017138D01*
X4045714Y3017979D01*
X4046071Y3018821D01*
X4046097Y3018847D01*
X4046122Y3018923D01*
X4046173Y3019025D01*
X4046275Y3019178D01*
X4046377Y3019382D01*
X4046505Y3019586D01*
X4046861Y3020070D01*
X4047295Y3020631D01*
X4047831Y3021167D01*
X4048443Y3021702D01*
X4048800Y3021932D01*
X4049157Y3022162D01*
X4049182Y3022187D01*
X4049258Y3022213D01*
X4049360Y3022264D01*
X4049514Y3022340D01*
X4049718Y3022416D01*
X4049947Y3022519D01*
X4050202Y3022620D01*
X4050508Y3022722D01*
X4050840Y3022825D01*
X4051197Y3022901D01*
X4051579Y3023003D01*
X4051987Y3023079D01*
X4052880Y3023207D01*
X4053338Y3023258D01*
X4054155D01*
X4054307Y3023233D01*
D02*
G37*
G36*
X4078660Y3005306D02*
X4076238D01*
X4067006Y3019153D01*
Y3005306D01*
X4064762D01*
Y3022952D01*
X4067160D01*
X4076416Y3009080D01*
Y3022952D01*
X4078660D01*
Y3005306D01*
D02*
G37*
G36*
X4089829Y3022927D02*
X4090339Y3022901D01*
X4090849Y3022850D01*
X4091359Y3022773D01*
X4091793Y3022697D01*
X4091818D01*
X4091869Y3022671D01*
X4091945D01*
X4092048Y3022620D01*
X4092328Y3022544D01*
X4092685Y3022416D01*
X4093093Y3022238D01*
X4093526Y3022008D01*
X4093960Y3021753D01*
X4094368Y3021422D01*
X4094394Y3021396D01*
X4094419Y3021371D01*
X4094495Y3021294D01*
X4094597Y3021218D01*
X4094852Y3020963D01*
X4095159Y3020606D01*
X4095490Y3020173D01*
X4095847Y3019662D01*
X4096178Y3019076D01*
X4096459Y3018413D01*
Y3018387D01*
X4096484Y3018336D01*
X4096535Y3018235D01*
X4096561Y3018081D01*
X4096637Y3017903D01*
X4096689Y3017699D01*
X4096739Y3017470D01*
X4096816Y3017189D01*
X4096892Y3016909D01*
X4096944Y3016577D01*
X4097071Y3015863D01*
X4097148Y3015073D01*
X4097173Y3014206D01*
Y3014180D01*
Y3014129D01*
Y3014001D01*
Y3013874D01*
X4097148Y3013695D01*
Y3013492D01*
X4097122Y3013007D01*
X4097046Y3012446D01*
X4096969Y3011860D01*
X4096842Y3011247D01*
X4096689Y3010635D01*
Y3010610D01*
X4096663Y3010559D01*
X4096637Y3010483D01*
X4096612Y3010381D01*
X4096510Y3010100D01*
X4096357Y3009743D01*
X4096204Y3009335D01*
X4096000Y3008927D01*
X4095745Y3008494D01*
X4095490Y3008086D01*
X4095465Y3008035D01*
X4095363Y3007907D01*
X4095209Y3007729D01*
X4095006Y3007499D01*
X4094776Y3007244D01*
X4094495Y3006989D01*
X4094215Y3006709D01*
X4093883Y3006479D01*
X4093832Y3006454D01*
X4093731Y3006377D01*
X4093552Y3006275D01*
X4093297Y3006148D01*
X4092991Y3005994D01*
X4092634Y3005867D01*
X4092226Y3005714D01*
X4091767Y3005586D01*
X4091716D01*
X4091640Y3005561D01*
X4091563Y3005535D01*
X4091308Y3005510D01*
X4090951Y3005459D01*
X4090543Y3005408D01*
X4090059Y3005357D01*
X4089523Y3005331D01*
X4088936Y3005306D01*
X4082587D01*
Y3022952D01*
X4089370D01*
X4089829Y3022927D01*
D02*
G37*
G36*
X4089140Y3121566D02*
X4089370Y3121540D01*
X4089651Y3121515D01*
X4089931Y3121489D01*
X4090262Y3121413D01*
X4090951Y3121260D01*
X4091716Y3121030D01*
X4092099Y3120877D01*
X4092456Y3120699D01*
X4092812Y3120469D01*
X4093169Y3120240D01*
X4093195Y3120214D01*
X4093246Y3120189D01*
X4093348Y3120112D01*
X4093476Y3119985D01*
X4093603Y3119857D01*
X4093782Y3119679D01*
X4093960Y3119475D01*
X4094164Y3119271D01*
X4094368Y3119016D01*
X4094572Y3118710D01*
X4094802Y3118404D01*
X4095006Y3118072D01*
X4095184Y3117690D01*
X4095388Y3117307D01*
X4095541Y3116899D01*
X4095694Y3116440D01*
X4093399Y3115905D01*
Y3115930D01*
X4093374Y3115981D01*
X4093323Y3116083D01*
X4093271Y3116211D01*
X4093220Y3116364D01*
X4093144Y3116568D01*
X4092940Y3116976D01*
X4092685Y3117435D01*
X4092379Y3117894D01*
X4091997Y3118327D01*
X4091588Y3118710D01*
X4091537Y3118761D01*
X4091385Y3118863D01*
X4091130Y3118990D01*
X4090798Y3119169D01*
X4090365Y3119322D01*
X4089880Y3119475D01*
X4089294Y3119577D01*
X4088656Y3119602D01*
X4088452D01*
X4088325Y3119577D01*
X4088146D01*
X4087942Y3119551D01*
X4087457Y3119475D01*
X4086922Y3119373D01*
X4086361Y3119194D01*
X4085774Y3118939D01*
X4085239Y3118608D01*
X4085213D01*
X4085188Y3118557D01*
X4085010Y3118429D01*
X4084780Y3118225D01*
X4084499Y3117919D01*
X4084168Y3117537D01*
X4083862Y3117103D01*
X4083581Y3116568D01*
X4083327Y3115981D01*
Y3115956D01*
X4083301Y3115905D01*
X4083276Y3115828D01*
X4083250Y3115701D01*
X4083199Y3115548D01*
X4083148Y3115369D01*
X4083072Y3114936D01*
X4082970Y3114426D01*
X4082867Y3113865D01*
X4082816Y3113253D01*
X4082791Y3112590D01*
Y3112564D01*
Y3112488D01*
Y3112360D01*
Y3112207D01*
X4082816Y3112029D01*
Y3111799D01*
X4082842Y3111544D01*
X4082867Y3111264D01*
X4082944Y3110652D01*
X4083072Y3109989D01*
X4083224Y3109326D01*
X4083428Y3108663D01*
Y3108637D01*
X4083454Y3108586D01*
X4083505Y3108510D01*
X4083556Y3108382D01*
X4083709Y3108076D01*
X4083939Y3107719D01*
X4084219Y3107311D01*
X4084576Y3106878D01*
X4084984Y3106495D01*
X4085468Y3106138D01*
X4085494D01*
X4085545Y3106113D01*
X4085622Y3106062D01*
X4085724Y3106011D01*
X4085851Y3105960D01*
X4086004Y3105883D01*
X4086361Y3105730D01*
X4086820Y3105577D01*
X4087330Y3105450D01*
X4087891Y3105348D01*
X4088477Y3105322D01*
X4088656D01*
X4088809Y3105348D01*
X4088988D01*
X4089166Y3105373D01*
X4089625Y3105475D01*
X4090160Y3105603D01*
X4090696Y3105807D01*
X4091257Y3106087D01*
X4091537Y3106240D01*
X4091793Y3106444D01*
X4091818Y3106470D01*
X4091843Y3106495D01*
X4091920Y3106572D01*
X4092022Y3106648D01*
X4092124Y3106776D01*
X4092251Y3106929D01*
X4092405Y3107082D01*
X4092532Y3107286D01*
X4092685Y3107515D01*
X4092863Y3107770D01*
X4093017Y3108025D01*
X4093169Y3108331D01*
X4093297Y3108663D01*
X4093425Y3109020D01*
X4093552Y3109402D01*
X4093654Y3109810D01*
X4096000Y3109224D01*
Y3109198D01*
X4095974Y3109096D01*
X4095923Y3108943D01*
X4095847Y3108739D01*
X4095771Y3108510D01*
X4095669Y3108229D01*
X4095541Y3107923D01*
X4095388Y3107592D01*
X4095031Y3106878D01*
X4094572Y3106164D01*
X4094291Y3105807D01*
X4094011Y3105450D01*
X4093705Y3105144D01*
X4093348Y3104838D01*
X4093323Y3104812D01*
X4093271Y3104761D01*
X4093144Y3104710D01*
X4093017Y3104608D01*
X4092812Y3104481D01*
X4092608Y3104353D01*
X4092328Y3104226D01*
X4092048Y3104098D01*
X4091716Y3103945D01*
X4091359Y3103818D01*
X4090977Y3103690D01*
X4090568Y3103563D01*
X4090135Y3103461D01*
X4089676Y3103410D01*
X4089191Y3103359D01*
X4088682Y3103333D01*
X4088401D01*
X4088197Y3103359D01*
X4087968D01*
X4087687Y3103384D01*
X4087381Y3103435D01*
X4087024Y3103486D01*
X4086285Y3103614D01*
X4085519Y3103818D01*
X4084755Y3104098D01*
X4084398Y3104277D01*
X4084041Y3104481D01*
X4084015Y3104506D01*
X4083964Y3104532D01*
X4083862Y3104608D01*
X4083760Y3104710D01*
X4083607Y3104812D01*
X4083428Y3104965D01*
X4083224Y3105144D01*
X4083021Y3105348D01*
X4082816Y3105577D01*
X4082587Y3105807D01*
X4082128Y3106393D01*
X4081695Y3107082D01*
X4081312Y3107847D01*
Y3107872D01*
X4081261Y3107949D01*
X4081235Y3108076D01*
X4081159Y3108229D01*
X4081108Y3108433D01*
X4081032Y3108688D01*
X4080930Y3108969D01*
X4080853Y3109275D01*
X4080776Y3109606D01*
X4080675Y3109989D01*
X4080547Y3110779D01*
X4080445Y3111672D01*
X4080394Y3112590D01*
Y3112615D01*
Y3112717D01*
Y3112870D01*
X4080419Y3113049D01*
Y3113304D01*
X4080445Y3113559D01*
X4080470Y3113890D01*
X4080521Y3114222D01*
X4080649Y3114961D01*
X4080827Y3115777D01*
X4081082Y3116593D01*
X4081439Y3117384D01*
X4081465Y3117409D01*
X4081490Y3117486D01*
X4081541Y3117588D01*
X4081644Y3117715D01*
X4081745Y3117894D01*
X4081873Y3118098D01*
X4082204Y3118557D01*
X4082638Y3119067D01*
X4083148Y3119577D01*
X4083735Y3120087D01*
X4084423Y3120520D01*
X4084448Y3120546D01*
X4084525Y3120571D01*
X4084627Y3120622D01*
X4084755Y3120699D01*
X4084959Y3120775D01*
X4085162Y3120852D01*
X4085418Y3120954D01*
X4085698Y3121056D01*
X4086004Y3121158D01*
X4086336Y3121260D01*
X4087050Y3121413D01*
X4087865Y3121540D01*
X4088707Y3121591D01*
X4088962D01*
X4089140Y3121566D01*
D02*
G37*
G36*
X4071341D02*
X4071571Y3121540D01*
X4071852Y3121515D01*
X4072132Y3121489D01*
X4072463Y3121413D01*
X4073152Y3121260D01*
X4073917Y3121030D01*
X4074300Y3120877D01*
X4074657Y3120699D01*
X4075014Y3120469D01*
X4075370Y3120240D01*
X4075396Y3120214D01*
X4075447Y3120189D01*
X4075549Y3120112D01*
X4075677Y3119985D01*
X4075804Y3119857D01*
X4075983Y3119679D01*
X4076161Y3119475D01*
X4076365Y3119271D01*
X4076569Y3119016D01*
X4076773Y3118710D01*
X4077003Y3118404D01*
X4077206Y3118072D01*
X4077385Y3117690D01*
X4077589Y3117307D01*
X4077742Y3116899D01*
X4077895Y3116440D01*
X4075600Y3115905D01*
Y3115930D01*
X4075575Y3115981D01*
X4075523Y3116083D01*
X4075472Y3116211D01*
X4075421Y3116364D01*
X4075345Y3116568D01*
X4075141Y3116976D01*
X4074886Y3117435D01*
X4074580Y3117894D01*
X4074198Y3118327D01*
X4073789Y3118710D01*
X4073738Y3118761D01*
X4073586Y3118863D01*
X4073331Y3118990D01*
X4072999Y3119169D01*
X4072566Y3119322D01*
X4072081Y3119475D01*
X4071494Y3119577D01*
X4070857Y3119602D01*
X4070653D01*
X4070526Y3119577D01*
X4070347D01*
X4070143Y3119551D01*
X4069659Y3119475D01*
X4069123Y3119373D01*
X4068562Y3119194D01*
X4067976Y3118939D01*
X4067440Y3118608D01*
X4067414D01*
X4067389Y3118557D01*
X4067211Y3118429D01*
X4066981Y3118225D01*
X4066700Y3117919D01*
X4066369Y3117537D01*
X4066063Y3117103D01*
X4065782Y3116568D01*
X4065528Y3115981D01*
Y3115956D01*
X4065502Y3115905D01*
X4065477Y3115828D01*
X4065451Y3115701D01*
X4065400Y3115548D01*
X4065349Y3115369D01*
X4065273Y3114936D01*
X4065171Y3114426D01*
X4065068Y3113865D01*
X4065017Y3113253D01*
X4064992Y3112590D01*
Y3112564D01*
Y3112488D01*
Y3112360D01*
Y3112207D01*
X4065017Y3112029D01*
Y3111799D01*
X4065043Y3111544D01*
X4065068Y3111264D01*
X4065145Y3110652D01*
X4065273Y3109989D01*
X4065425Y3109326D01*
X4065630Y3108663D01*
Y3108637D01*
X4065655Y3108586D01*
X4065706Y3108510D01*
X4065757Y3108382D01*
X4065910Y3108076D01*
X4066140Y3107719D01*
X4066420Y3107311D01*
X4066777Y3106878D01*
X4067185Y3106495D01*
X4067669Y3106138D01*
X4067695D01*
X4067746Y3106113D01*
X4067823Y3106062D01*
X4067925Y3106011D01*
X4068052Y3105960D01*
X4068205Y3105883D01*
X4068562Y3105730D01*
X4069021Y3105577D01*
X4069531Y3105450D01*
X4070092Y3105348D01*
X4070678Y3105322D01*
X4070857D01*
X4071010Y3105348D01*
X4071189D01*
X4071367Y3105373D01*
X4071826Y3105475D01*
X4072361Y3105603D01*
X4072897Y3105807D01*
X4073458Y3106087D01*
X4073738Y3106240D01*
X4073994Y3106444D01*
X4074019Y3106470D01*
X4074044Y3106495D01*
X4074121Y3106572D01*
X4074223Y3106648D01*
X4074325Y3106776D01*
X4074452Y3106929D01*
X4074606Y3107082D01*
X4074733Y3107286D01*
X4074886Y3107515D01*
X4075064Y3107770D01*
X4075218Y3108025D01*
X4075370Y3108331D01*
X4075498Y3108663D01*
X4075626Y3109020D01*
X4075753Y3109402D01*
X4075855Y3109810D01*
X4078201Y3109224D01*
Y3109198D01*
X4078175Y3109096D01*
X4078124Y3108943D01*
X4078048Y3108739D01*
X4077972Y3108510D01*
X4077869Y3108229D01*
X4077742Y3107923D01*
X4077589Y3107592D01*
X4077232Y3106878D01*
X4076773Y3106164D01*
X4076492Y3105807D01*
X4076212Y3105450D01*
X4075906Y3105144D01*
X4075549Y3104838D01*
X4075523Y3104812D01*
X4075472Y3104761D01*
X4075345Y3104710D01*
X4075218Y3104608D01*
X4075014Y3104481D01*
X4074809Y3104353D01*
X4074529Y3104226D01*
X4074249Y3104098D01*
X4073917Y3103945D01*
X4073560Y3103818D01*
X4073177Y3103690D01*
X4072769Y3103563D01*
X4072336Y3103461D01*
X4071877Y3103410D01*
X4071392Y3103359D01*
X4070883Y3103333D01*
X4070602D01*
X4070398Y3103359D01*
X4070169D01*
X4069888Y3103384D01*
X4069582Y3103435D01*
X4069225Y3103486D01*
X4068485Y3103614D01*
X4067720Y3103818D01*
X4066956Y3104098D01*
X4066599Y3104277D01*
X4066242Y3104481D01*
X4066216Y3104506D01*
X4066165Y3104532D01*
X4066063Y3104608D01*
X4065961Y3104710D01*
X4065808Y3104812D01*
X4065630Y3104965D01*
X4065425Y3105144D01*
X4065222Y3105348D01*
X4065017Y3105577D01*
X4064788Y3105807D01*
X4064329Y3106393D01*
X4063896Y3107082D01*
X4063513Y3107847D01*
Y3107872D01*
X4063462Y3107949D01*
X4063436Y3108076D01*
X4063360Y3108229D01*
X4063309Y3108433D01*
X4063233Y3108688D01*
X4063131Y3108969D01*
X4063054Y3109275D01*
X4062977Y3109606D01*
X4062876Y3109989D01*
X4062748Y3110779D01*
X4062646Y3111672D01*
X4062595Y3112590D01*
Y3112615D01*
Y3112717D01*
Y3112870D01*
X4062620Y3113049D01*
Y3113304D01*
X4062646Y3113559D01*
X4062671Y3113890D01*
X4062722Y3114222D01*
X4062850Y3114961D01*
X4063028Y3115777D01*
X4063284Y3116593D01*
X4063640Y3117384D01*
X4063666Y3117409D01*
X4063691Y3117486D01*
X4063742Y3117588D01*
X4063845Y3117715D01*
X4063947Y3117894D01*
X4064074Y3118098D01*
X4064405Y3118557D01*
X4064839Y3119067D01*
X4065349Y3119577D01*
X4065936Y3120087D01*
X4066624Y3120520D01*
X4066649Y3120546D01*
X4066726Y3120571D01*
X4066828Y3120622D01*
X4066956Y3120699D01*
X4067160Y3120775D01*
X4067363Y3120852D01*
X4067619Y3120954D01*
X4067899Y3121056D01*
X4068205Y3121158D01*
X4068537Y3121260D01*
X4069251Y3121413D01*
X4070066Y3121540D01*
X4070908Y3121591D01*
X4071163D01*
X4071341Y3121566D01*
D02*
G37*
G36*
X4054282Y3103639D02*
X4051834D01*
X4045000Y3121285D01*
X4047550D01*
X4052140Y3108459D01*
Y3108433D01*
X4052166Y3108382D01*
X4052191Y3108306D01*
X4052242Y3108204D01*
X4052267Y3108051D01*
X4052318Y3107898D01*
X4052446Y3107515D01*
X4052599Y3107082D01*
X4052752Y3106597D01*
X4053058Y3105577D01*
Y3105603D01*
X4053084Y3105654D01*
X4053109Y3105730D01*
X4053135Y3105832D01*
X4053211Y3106113D01*
X4053338Y3106495D01*
X4053466Y3106929D01*
X4053619Y3107413D01*
X4053798Y3107923D01*
X4054001Y3108459D01*
X4058796Y3121285D01*
X4061167D01*
X4054282Y3103639D01*
D02*
G37*
G36*
X4052369Y3219899D02*
X4052548D01*
X4053032Y3219848D01*
X4053568Y3219772D01*
X4054129Y3219644D01*
X4054741Y3219491D01*
X4055302Y3219287D01*
X4055327D01*
X4055378Y3219262D01*
X4055455Y3219211D01*
X4055557Y3219160D01*
X4055812Y3219032D01*
X4056144Y3218803D01*
X4056526Y3218548D01*
X4056909Y3218216D01*
X4057265Y3217834D01*
X4057597Y3217400D01*
Y3217375D01*
X4057622Y3217349D01*
X4057673Y3217273D01*
X4057724Y3217196D01*
X4057852Y3216941D01*
X4058005Y3216610D01*
X4058184Y3216202D01*
X4058311Y3215717D01*
X4058439Y3215207D01*
X4058490Y3214646D01*
X4056245Y3214468D01*
Y3214493D01*
Y3214544D01*
X4056220Y3214621D01*
X4056195Y3214748D01*
X4056118Y3215029D01*
X4056016Y3215411D01*
X4055863Y3215819D01*
X4055633Y3216227D01*
X4055353Y3216610D01*
X4054996Y3216967D01*
X4054945Y3216992D01*
X4054818Y3217094D01*
X4054562Y3217247D01*
X4054231Y3217400D01*
X4053798Y3217553D01*
X4053287Y3217706D01*
X4052650Y3217808D01*
X4051936Y3217834D01*
X4051579D01*
X4051426Y3217808D01*
X4051222Y3217783D01*
X4050763Y3217732D01*
X4050253Y3217630D01*
X4049743Y3217502D01*
X4049258Y3217298D01*
X4049055Y3217171D01*
X4048851Y3217043D01*
X4048800Y3217018D01*
X4048698Y3216916D01*
X4048544Y3216737D01*
X4048392Y3216533D01*
X4048213Y3216253D01*
X4048060Y3215947D01*
X4047958Y3215590D01*
X4047907Y3215182D01*
Y3215131D01*
Y3215029D01*
X4047932Y3214850D01*
X4047983Y3214646D01*
X4048060Y3214391D01*
X4048188Y3214136D01*
X4048340Y3213881D01*
X4048570Y3213626D01*
X4048595Y3213601D01*
X4048723Y3213524D01*
X4048825Y3213448D01*
X4048927Y3213397D01*
X4049080Y3213320D01*
X4049258Y3213218D01*
X4049488Y3213142D01*
X4049743Y3213040D01*
X4050023Y3212938D01*
X4050355Y3212810D01*
X4050712Y3212708D01*
X4051120Y3212581D01*
X4051579Y3212479D01*
X4052089Y3212351D01*
X4052115D01*
X4052216Y3212326D01*
X4052369Y3212300D01*
X4052548Y3212249D01*
X4052778Y3212198D01*
X4053058Y3212122D01*
X4053338Y3212045D01*
X4053644Y3211969D01*
X4054307Y3211790D01*
X4054945Y3211612D01*
X4055251Y3211510D01*
X4055532Y3211408D01*
X4055787Y3211331D01*
X4055990Y3211229D01*
X4056016D01*
X4056067Y3211204D01*
X4056144Y3211153D01*
X4056245Y3211102D01*
X4056526Y3210949D01*
X4056858Y3210745D01*
X4057240Y3210464D01*
X4057622Y3210158D01*
X4057979Y3209801D01*
X4058285Y3209419D01*
X4058311Y3209368D01*
X4058413Y3209240D01*
X4058515Y3209011D01*
X4058668Y3208705D01*
X4058796Y3208348D01*
X4058923Y3207914D01*
X4058999Y3207430D01*
X4059025Y3206920D01*
Y3206894D01*
Y3206869D01*
Y3206792D01*
Y3206690D01*
X4058974Y3206410D01*
X4058923Y3206053D01*
X4058821Y3205645D01*
X4058693Y3205211D01*
X4058490Y3204752D01*
X4058209Y3204268D01*
Y3204242D01*
X4058184Y3204217D01*
X4058056Y3204064D01*
X4057878Y3203834D01*
X4057622Y3203579D01*
X4057291Y3203273D01*
X4056883Y3202942D01*
X4056424Y3202636D01*
X4055889Y3202355D01*
X4055863D01*
X4055812Y3202330D01*
X4055735Y3202304D01*
X4055633Y3202253D01*
X4055481Y3202202D01*
X4055302Y3202126D01*
X4054894Y3202024D01*
X4054410Y3201896D01*
X4053823Y3201769D01*
X4053186Y3201692D01*
X4052497Y3201667D01*
X4052089D01*
X4051885Y3201692D01*
X4051655D01*
X4051401Y3201718D01*
X4051095Y3201743D01*
X4050457Y3201845D01*
X4049794Y3201947D01*
X4049131Y3202126D01*
X4048494Y3202355D01*
X4048468D01*
X4048417Y3202381D01*
X4048340Y3202432D01*
X4048238Y3202483D01*
X4047932Y3202636D01*
X4047575Y3202865D01*
X4047168Y3203171D01*
X4046734Y3203528D01*
X4046326Y3203962D01*
X4045943Y3204446D01*
Y3204472D01*
X4045892Y3204523D01*
X4045867Y3204599D01*
X4045791Y3204701D01*
X4045740Y3204829D01*
X4045663Y3204982D01*
X4045485Y3205364D01*
X4045306Y3205849D01*
X4045153Y3206384D01*
X4045051Y3206996D01*
X4045000Y3207634D01*
X4047193Y3207838D01*
Y3207812D01*
Y3207787D01*
X4047218Y3207710D01*
Y3207608D01*
X4047269Y3207379D01*
X4047346Y3207047D01*
X4047448Y3206716D01*
X4047550Y3206333D01*
X4047729Y3205976D01*
X4047907Y3205645D01*
X4047932Y3205619D01*
X4048009Y3205517D01*
X4048137Y3205339D01*
X4048340Y3205160D01*
X4048595Y3204931D01*
X4048876Y3204701D01*
X4049258Y3204472D01*
X4049666Y3204268D01*
X4049692D01*
X4049718Y3204242D01*
X4049794Y3204217D01*
X4049870Y3204191D01*
X4050126Y3204115D01*
X4050457Y3204013D01*
X4050865Y3203911D01*
X4051324Y3203834D01*
X4051834Y3203783D01*
X4052395Y3203758D01*
X4052624D01*
X4052880Y3203783D01*
X4053186Y3203809D01*
X4053543Y3203860D01*
X4053950Y3203911D01*
X4054358Y3204013D01*
X4054741Y3204140D01*
X4054792Y3204166D01*
X4054919Y3204217D01*
X4055098Y3204319D01*
X4055327Y3204421D01*
X4055557Y3204599D01*
X4055812Y3204778D01*
X4056067Y3204982D01*
X4056271Y3205237D01*
X4056296Y3205262D01*
X4056347Y3205364D01*
X4056424Y3205492D01*
X4056526Y3205696D01*
X4056628Y3205900D01*
X4056704Y3206155D01*
X4056756Y3206435D01*
X4056781Y3206741D01*
Y3206767D01*
Y3206894D01*
X4056756Y3207047D01*
X4056730Y3207251D01*
X4056653Y3207455D01*
X4056577Y3207710D01*
X4056450Y3207965D01*
X4056271Y3208195D01*
X4056245Y3208220D01*
X4056169Y3208297D01*
X4056067Y3208399D01*
X4055889Y3208552D01*
X4055684Y3208705D01*
X4055404Y3208883D01*
X4055073Y3209062D01*
X4054690Y3209215D01*
X4054664Y3209240D01*
X4054537Y3209266D01*
X4054333Y3209342D01*
X4054206Y3209368D01*
X4054027Y3209419D01*
X4053849Y3209495D01*
X4053619Y3209546D01*
X4053364Y3209623D01*
X4053058Y3209699D01*
X4052752Y3209776D01*
X4052395Y3209878D01*
X4051987Y3209980D01*
X4051553Y3210082D01*
X4051528D01*
X4051452Y3210107D01*
X4051324Y3210133D01*
X4051171Y3210184D01*
X4050967Y3210235D01*
X4050738Y3210286D01*
X4050227Y3210439D01*
X4049666Y3210617D01*
X4049080Y3210796D01*
X4048570Y3210974D01*
X4048340Y3211076D01*
X4048137Y3211178D01*
X4048111D01*
X4048086Y3211204D01*
X4047932Y3211306D01*
X4047703Y3211433D01*
X4047448Y3211637D01*
X4047142Y3211867D01*
X4046836Y3212147D01*
X4046530Y3212479D01*
X4046275Y3212836D01*
X4046249Y3212887D01*
X4046173Y3213014D01*
X4046071Y3213218D01*
X4045969Y3213473D01*
X4045867Y3213805D01*
X4045765Y3214187D01*
X4045689Y3214595D01*
X4045663Y3215029D01*
Y3215054D01*
Y3215080D01*
Y3215156D01*
Y3215258D01*
X4045714Y3215513D01*
X4045765Y3215845D01*
X4045841Y3216227D01*
X4045969Y3216661D01*
X4046148Y3217094D01*
X4046403Y3217528D01*
Y3217553D01*
X4046428Y3217579D01*
X4046555Y3217732D01*
X4046734Y3217936D01*
X4046963Y3218191D01*
X4047269Y3218471D01*
X4047652Y3218777D01*
X4048111Y3219058D01*
X4048621Y3219313D01*
X4048646D01*
X4048698Y3219338D01*
X4048774Y3219364D01*
X4048876Y3219415D01*
X4049003Y3219466D01*
X4049182Y3219517D01*
X4049564Y3219619D01*
X4050049Y3219721D01*
X4050610Y3219823D01*
X4051197Y3219899D01*
X4051860Y3219925D01*
X4052191D01*
X4052369Y3219899D01*
D02*
G37*
G36*
X4094597Y3201973D02*
X4091945D01*
X4089880Y3207328D01*
X4082485D01*
X4080573Y3201973D01*
X4078099D01*
X4084831Y3219619D01*
X4087381D01*
X4094597Y3201973D01*
D02*
G37*
G36*
X4069480Y3219593D02*
X4069990Y3219568D01*
X4070500Y3219517D01*
X4071010Y3219440D01*
X4071443Y3219364D01*
X4071469D01*
X4071520Y3219338D01*
X4071597D01*
X4071698Y3219287D01*
X4071979Y3219211D01*
X4072336Y3219083D01*
X4072744Y3218905D01*
X4073177Y3218675D01*
X4073611Y3218420D01*
X4074019Y3218089D01*
X4074044Y3218063D01*
X4074070Y3218038D01*
X4074146Y3217961D01*
X4074249Y3217885D01*
X4074503Y3217630D01*
X4074809Y3217273D01*
X4075141Y3216839D01*
X4075498Y3216329D01*
X4075829Y3215743D01*
X4076110Y3215080D01*
Y3215054D01*
X4076135Y3215003D01*
X4076186Y3214901D01*
X4076212Y3214748D01*
X4076289Y3214570D01*
X4076340Y3214366D01*
X4076390Y3214136D01*
X4076467Y3213856D01*
X4076544Y3213575D01*
X4076595Y3213244D01*
X4076722Y3212530D01*
X4076798Y3211739D01*
X4076824Y3210872D01*
Y3210847D01*
Y3210796D01*
Y3210668D01*
Y3210541D01*
X4076798Y3210362D01*
Y3210158D01*
X4076773Y3209674D01*
X4076697Y3209113D01*
X4076620Y3208526D01*
X4076492Y3207914D01*
X4076340Y3207302D01*
Y3207277D01*
X4076314Y3207226D01*
X4076289Y3207149D01*
X4076263Y3207047D01*
X4076161Y3206767D01*
X4076008Y3206410D01*
X4075855Y3206002D01*
X4075651Y3205594D01*
X4075396Y3205160D01*
X4075141Y3204752D01*
X4075115Y3204701D01*
X4075014Y3204574D01*
X4074860Y3204395D01*
X4074657Y3204166D01*
X4074427Y3203911D01*
X4074146Y3203656D01*
X4073866Y3203375D01*
X4073535Y3203146D01*
X4073483Y3203120D01*
X4073381Y3203044D01*
X4073203Y3202942D01*
X4072948Y3202814D01*
X4072642Y3202661D01*
X4072285Y3202534D01*
X4071877Y3202381D01*
X4071418Y3202253D01*
X4071367D01*
X4071291Y3202228D01*
X4071214Y3202202D01*
X4070959Y3202177D01*
X4070602Y3202126D01*
X4070194Y3202075D01*
X4069709Y3202024D01*
X4069174Y3201998D01*
X4068588Y3201973D01*
X4062238D01*
Y3219619D01*
X4069021D01*
X4069480Y3219593D01*
D02*
G37*
G36*
X4052369Y3318232D02*
X4052548D01*
X4053032Y3318181D01*
X4053568Y3318105D01*
X4054129Y3317977D01*
X4054741Y3317824D01*
X4055302Y3317620D01*
X4055327D01*
X4055378Y3317595D01*
X4055455Y3317544D01*
X4055557Y3317493D01*
X4055812Y3317365D01*
X4056144Y3317136D01*
X4056526Y3316881D01*
X4056909Y3316549D01*
X4057265Y3316167D01*
X4057597Y3315733D01*
Y3315708D01*
X4057622Y3315682D01*
X4057673Y3315606D01*
X4057724Y3315529D01*
X4057852Y3315274D01*
X4058005Y3314943D01*
X4058184Y3314535D01*
X4058311Y3314050D01*
X4058439Y3313540D01*
X4058490Y3312979D01*
X4056245Y3312801D01*
Y3312826D01*
Y3312877D01*
X4056220Y3312954D01*
X4056195Y3313081D01*
X4056118Y3313362D01*
X4056016Y3313744D01*
X4055863Y3314152D01*
X4055633Y3314560D01*
X4055353Y3314943D01*
X4054996Y3315300D01*
X4054945Y3315325D01*
X4054818Y3315427D01*
X4054562Y3315580D01*
X4054231Y3315733D01*
X4053798Y3315886D01*
X4053287Y3316039D01*
X4052650Y3316141D01*
X4051936Y3316167D01*
X4051579D01*
X4051426Y3316141D01*
X4051222Y3316116D01*
X4050763Y3316065D01*
X4050253Y3315963D01*
X4049743Y3315835D01*
X4049258Y3315631D01*
X4049055Y3315504D01*
X4048851Y3315376D01*
X4048800Y3315351D01*
X4048698Y3315249D01*
X4048544Y3315070D01*
X4048392Y3314866D01*
X4048213Y3314586D01*
X4048060Y3314280D01*
X4047958Y3313923D01*
X4047907Y3313515D01*
Y3313464D01*
Y3313362D01*
X4047932Y3313183D01*
X4047983Y3312979D01*
X4048060Y3312724D01*
X4048188Y3312469D01*
X4048340Y3312214D01*
X4048570Y3311959D01*
X4048595Y3311934D01*
X4048723Y3311857D01*
X4048825Y3311781D01*
X4048927Y3311730D01*
X4049080Y3311653D01*
X4049258Y3311551D01*
X4049488Y3311475D01*
X4049743Y3311373D01*
X4050023Y3311271D01*
X4050355Y3311143D01*
X4050712Y3311041D01*
X4051120Y3310914D01*
X4051579Y3310812D01*
X4052089Y3310684D01*
X4052115D01*
X4052216Y3310659D01*
X4052369Y3310633D01*
X4052548Y3310582D01*
X4052778Y3310531D01*
X4053058Y3310455D01*
X4053338Y3310378D01*
X4053644Y3310302D01*
X4054307Y3310123D01*
X4054945Y3309945D01*
X4055251Y3309843D01*
X4055532Y3309741D01*
X4055787Y3309664D01*
X4055990Y3309562D01*
X4056016D01*
X4056067Y3309537D01*
X4056144Y3309486D01*
X4056245Y3309435D01*
X4056526Y3309282D01*
X4056858Y3309078D01*
X4057240Y3308797D01*
X4057622Y3308491D01*
X4057979Y3308134D01*
X4058285Y3307752D01*
X4058311Y3307701D01*
X4058413Y3307573D01*
X4058515Y3307344D01*
X4058668Y3307038D01*
X4058796Y3306681D01*
X4058923Y3306247D01*
X4058999Y3305763D01*
X4059025Y3305253D01*
Y3305227D01*
Y3305202D01*
Y3305125D01*
Y3305023D01*
X4058974Y3304743D01*
X4058923Y3304386D01*
X4058821Y3303978D01*
X4058693Y3303544D01*
X4058490Y3303085D01*
X4058209Y3302601D01*
Y3302575D01*
X4058184Y3302550D01*
X4058056Y3302397D01*
X4057878Y3302167D01*
X4057622Y3301912D01*
X4057291Y3301606D01*
X4056883Y3301275D01*
X4056424Y3300969D01*
X4055889Y3300688D01*
X4055863D01*
X4055812Y3300663D01*
X4055735Y3300637D01*
X4055633Y3300586D01*
X4055481Y3300535D01*
X4055302Y3300459D01*
X4054894Y3300357D01*
X4054410Y3300229D01*
X4053823Y3300102D01*
X4053186Y3300025D01*
X4052497Y3300000D01*
X4052089D01*
X4051885Y3300025D01*
X4051655D01*
X4051401Y3300051D01*
X4051095Y3300076D01*
X4050457Y3300178D01*
X4049794Y3300280D01*
X4049131Y3300459D01*
X4048494Y3300688D01*
X4048468D01*
X4048417Y3300714D01*
X4048340Y3300765D01*
X4048238Y3300816D01*
X4047932Y3300969D01*
X4047575Y3301198D01*
X4047168Y3301504D01*
X4046734Y3301861D01*
X4046326Y3302295D01*
X4045943Y3302779D01*
Y3302805D01*
X4045892Y3302856D01*
X4045867Y3302932D01*
X4045791Y3303034D01*
X4045740Y3303162D01*
X4045663Y3303315D01*
X4045485Y3303697D01*
X4045306Y3304182D01*
X4045153Y3304717D01*
X4045051Y3305329D01*
X4045000Y3305967D01*
X4047193Y3306171D01*
Y3306145D01*
Y3306120D01*
X4047218Y3306043D01*
Y3305941D01*
X4047269Y3305712D01*
X4047346Y3305380D01*
X4047448Y3305049D01*
X4047550Y3304666D01*
X4047729Y3304309D01*
X4047907Y3303978D01*
X4047932Y3303952D01*
X4048009Y3303850D01*
X4048137Y3303672D01*
X4048340Y3303493D01*
X4048595Y3303264D01*
X4048876Y3303034D01*
X4049258Y3302805D01*
X4049666Y3302601D01*
X4049692D01*
X4049718Y3302575D01*
X4049794Y3302550D01*
X4049870Y3302524D01*
X4050126Y3302448D01*
X4050457Y3302346D01*
X4050865Y3302244D01*
X4051324Y3302167D01*
X4051834Y3302116D01*
X4052395Y3302091D01*
X4052624D01*
X4052880Y3302116D01*
X4053186Y3302142D01*
X4053543Y3302193D01*
X4053950Y3302244D01*
X4054358Y3302346D01*
X4054741Y3302473D01*
X4054792Y3302499D01*
X4054919Y3302550D01*
X4055098Y3302652D01*
X4055327Y3302754D01*
X4055557Y3302932D01*
X4055812Y3303111D01*
X4056067Y3303315D01*
X4056271Y3303570D01*
X4056296Y3303595D01*
X4056347Y3303697D01*
X4056424Y3303825D01*
X4056526Y3304029D01*
X4056628Y3304233D01*
X4056704Y3304488D01*
X4056756Y3304768D01*
X4056781Y3305074D01*
Y3305100D01*
Y3305227D01*
X4056756Y3305380D01*
X4056730Y3305584D01*
X4056653Y3305788D01*
X4056577Y3306043D01*
X4056450Y3306298D01*
X4056271Y3306528D01*
X4056245Y3306553D01*
X4056169Y3306630D01*
X4056067Y3306732D01*
X4055889Y3306885D01*
X4055684Y3307038D01*
X4055404Y3307216D01*
X4055073Y3307395D01*
X4054690Y3307548D01*
X4054664Y3307573D01*
X4054537Y3307599D01*
X4054333Y3307675D01*
X4054206Y3307701D01*
X4054027Y3307752D01*
X4053849Y3307828D01*
X4053619Y3307879D01*
X4053364Y3307956D01*
X4053058Y3308032D01*
X4052752Y3308109D01*
X4052395Y3308211D01*
X4051987Y3308313D01*
X4051553Y3308415D01*
X4051528D01*
X4051452Y3308440D01*
X4051324Y3308466D01*
X4051171Y3308517D01*
X4050967Y3308568D01*
X4050738Y3308619D01*
X4050227Y3308772D01*
X4049666Y3308950D01*
X4049080Y3309129D01*
X4048570Y3309307D01*
X4048340Y3309409D01*
X4048137Y3309511D01*
X4048111D01*
X4048086Y3309537D01*
X4047932Y3309639D01*
X4047703Y3309766D01*
X4047448Y3309970D01*
X4047142Y3310200D01*
X4046836Y3310480D01*
X4046530Y3310812D01*
X4046275Y3311169D01*
X4046249Y3311220D01*
X4046173Y3311347D01*
X4046071Y3311551D01*
X4045969Y3311806D01*
X4045867Y3312138D01*
X4045765Y3312520D01*
X4045689Y3312928D01*
X4045663Y3313362D01*
Y3313387D01*
Y3313413D01*
Y3313489D01*
Y3313591D01*
X4045714Y3313846D01*
X4045765Y3314178D01*
X4045841Y3314560D01*
X4045969Y3314994D01*
X4046148Y3315427D01*
X4046403Y3315861D01*
Y3315886D01*
X4046428Y3315912D01*
X4046555Y3316065D01*
X4046734Y3316269D01*
X4046963Y3316524D01*
X4047269Y3316804D01*
X4047652Y3317110D01*
X4048111Y3317391D01*
X4048621Y3317646D01*
X4048646D01*
X4048698Y3317671D01*
X4048774Y3317697D01*
X4048876Y3317748D01*
X4049003Y3317799D01*
X4049182Y3317850D01*
X4049564Y3317952D01*
X4050049Y3318054D01*
X4050610Y3318156D01*
X4051197Y3318232D01*
X4051860Y3318258D01*
X4052191D01*
X4052369Y3318232D01*
D02*
G37*
G36*
X4070296D02*
X4070526Y3318207D01*
X4070806Y3318181D01*
X4071086Y3318156D01*
X4071418Y3318079D01*
X4072106Y3317926D01*
X4072872Y3317697D01*
X4073254Y3317544D01*
X4073611Y3317365D01*
X4073968Y3317136D01*
X4074325Y3316906D01*
X4074351Y3316881D01*
X4074401Y3316855D01*
X4074503Y3316779D01*
X4074631Y3316651D01*
X4074758Y3316524D01*
X4074937Y3316345D01*
X4075115Y3316141D01*
X4075320Y3315937D01*
X4075523Y3315682D01*
X4075727Y3315376D01*
X4075957Y3315070D01*
X4076161Y3314739D01*
X4076340Y3314356D01*
X4076544Y3313974D01*
X4076697Y3313566D01*
X4076849Y3313107D01*
X4074555Y3312571D01*
Y3312597D01*
X4074529Y3312648D01*
X4074478Y3312750D01*
X4074427Y3312877D01*
X4074376Y3313030D01*
X4074300Y3313234D01*
X4074095Y3313642D01*
X4073840Y3314101D01*
X4073535Y3314560D01*
X4073152Y3314994D01*
X4072744Y3315376D01*
X4072693Y3315427D01*
X4072540Y3315529D01*
X4072285Y3315657D01*
X4071954Y3315835D01*
X4071520Y3315988D01*
X4071035Y3316141D01*
X4070449Y3316243D01*
X4069811Y3316269D01*
X4069608D01*
X4069480Y3316243D01*
X4069302D01*
X4069097Y3316218D01*
X4068613Y3316141D01*
X4068077Y3316039D01*
X4067517Y3315861D01*
X4066930Y3315606D01*
X4066394Y3315274D01*
X4066369D01*
X4066343Y3315223D01*
X4066165Y3315096D01*
X4065936Y3314892D01*
X4065655Y3314586D01*
X4065323Y3314203D01*
X4065017Y3313770D01*
X4064737Y3313234D01*
X4064482Y3312648D01*
Y3312622D01*
X4064456Y3312571D01*
X4064431Y3312495D01*
X4064405Y3312367D01*
X4064354Y3312214D01*
X4064303Y3312036D01*
X4064227Y3311602D01*
X4064125Y3311092D01*
X4064023Y3310531D01*
X4063972Y3309919D01*
X4063947Y3309256D01*
Y3309231D01*
Y3309154D01*
Y3309027D01*
Y3308874D01*
X4063972Y3308695D01*
Y3308466D01*
X4063997Y3308211D01*
X4064023Y3307930D01*
X4064099Y3307318D01*
X4064227Y3306655D01*
X4064380Y3305992D01*
X4064584Y3305329D01*
Y3305304D01*
X4064610Y3305253D01*
X4064660Y3305176D01*
X4064711Y3305049D01*
X4064865Y3304743D01*
X4065094Y3304386D01*
X4065374Y3303978D01*
X4065731Y3303544D01*
X4066140Y3303162D01*
X4066624Y3302805D01*
X4066649D01*
X4066700Y3302779D01*
X4066777Y3302728D01*
X4066879Y3302677D01*
X4067006Y3302626D01*
X4067160Y3302550D01*
X4067517Y3302397D01*
X4067976Y3302244D01*
X4068485Y3302116D01*
X4069046Y3302014D01*
X4069633Y3301989D01*
X4069811D01*
X4069965Y3302014D01*
X4070143D01*
X4070322Y3302040D01*
X4070780Y3302142D01*
X4071316Y3302269D01*
X4071852Y3302473D01*
X4072412Y3302754D01*
X4072693Y3302907D01*
X4072948Y3303111D01*
X4072974Y3303136D01*
X4072999Y3303162D01*
X4073075Y3303238D01*
X4073177Y3303315D01*
X4073280Y3303442D01*
X4073407Y3303595D01*
X4073560Y3303748D01*
X4073688Y3303952D01*
X4073840Y3304182D01*
X4074019Y3304437D01*
X4074172Y3304692D01*
X4074325Y3304998D01*
X4074452Y3305329D01*
X4074580Y3305686D01*
X4074707Y3306069D01*
X4074809Y3306477D01*
X4077155Y3305890D01*
Y3305865D01*
X4077130Y3305763D01*
X4077079Y3305610D01*
X4077003Y3305406D01*
X4076926Y3305176D01*
X4076824Y3304896D01*
X4076697Y3304590D01*
X4076544Y3304258D01*
X4076186Y3303544D01*
X4075727Y3302830D01*
X4075447Y3302473D01*
X4075166Y3302116D01*
X4074860Y3301810D01*
X4074503Y3301504D01*
X4074478Y3301479D01*
X4074427Y3301428D01*
X4074300Y3301377D01*
X4074172Y3301275D01*
X4073968Y3301147D01*
X4073764Y3301020D01*
X4073483Y3300892D01*
X4073203Y3300765D01*
X4072872Y3300612D01*
X4072515Y3300484D01*
X4072132Y3300357D01*
X4071724Y3300229D01*
X4071291Y3300127D01*
X4070831Y3300076D01*
X4070347Y3300025D01*
X4069837Y3300000D01*
X4069557D01*
X4069352Y3300025D01*
X4069123D01*
X4068843Y3300051D01*
X4068537Y3300102D01*
X4068180Y3300153D01*
X4067440Y3300280D01*
X4066675Y3300484D01*
X4065910Y3300765D01*
X4065553Y3300943D01*
X4065196Y3301147D01*
X4065171Y3301173D01*
X4065119Y3301198D01*
X4065017Y3301275D01*
X4064916Y3301377D01*
X4064762Y3301479D01*
X4064584Y3301632D01*
X4064380Y3301810D01*
X4064176Y3302014D01*
X4063972Y3302244D01*
X4063742Y3302473D01*
X4063284Y3303060D01*
X4062850Y3303748D01*
X4062468Y3304513D01*
Y3304539D01*
X4062416Y3304615D01*
X4062391Y3304743D01*
X4062314Y3304896D01*
X4062264Y3305100D01*
X4062187Y3305355D01*
X4062085Y3305635D01*
X4062008Y3305941D01*
X4061932Y3306273D01*
X4061830Y3306655D01*
X4061702Y3307446D01*
X4061601Y3308338D01*
X4061550Y3309256D01*
Y3309282D01*
Y3309384D01*
Y3309537D01*
X4061575Y3309715D01*
Y3309970D01*
X4061601Y3310225D01*
X4061626Y3310557D01*
X4061677Y3310888D01*
X4061805Y3311628D01*
X4061983Y3312444D01*
X4062238Y3313260D01*
X4062595Y3314050D01*
X4062620Y3314076D01*
X4062646Y3314152D01*
X4062697Y3314254D01*
X4062799Y3314382D01*
X4062901Y3314560D01*
X4063028Y3314764D01*
X4063360Y3315223D01*
X4063794Y3315733D01*
X4064303Y3316243D01*
X4064890Y3316753D01*
X4065579Y3317187D01*
X4065604Y3317212D01*
X4065680Y3317238D01*
X4065782Y3317289D01*
X4065910Y3317365D01*
X4066114Y3317442D01*
X4066318Y3317518D01*
X4066573Y3317620D01*
X4066854Y3317722D01*
X4067160Y3317824D01*
X4067491Y3317926D01*
X4068205Y3318079D01*
X4069021Y3318207D01*
X4069863Y3318258D01*
X4070117D01*
X4070296Y3318232D01*
D02*
G37*
G36*
X4082281Y3302397D02*
X4090977D01*
Y3300306D01*
X4079935D01*
Y3317952D01*
X4082281D01*
Y3302397D01*
D02*
G37*
%LPC*%
G36*
X4089013Y3020861D02*
X4084933D01*
Y3007397D01*
X4089115D01*
X4089294Y3007423D01*
X4089676Y3007448D01*
X4090110Y3007474D01*
X4090568Y3007524D01*
X4091028Y3007601D01*
X4091410Y3007703D01*
X4091461Y3007729D01*
X4091588Y3007754D01*
X4091767Y3007831D01*
X4091997Y3007932D01*
X4092251Y3008086D01*
X4092506Y3008238D01*
X4092762Y3008417D01*
X4093017Y3008621D01*
X4093042Y3008672D01*
X4093144Y3008774D01*
X4093297Y3008952D01*
X4093476Y3009207D01*
X4093680Y3009539D01*
X4093909Y3009921D01*
X4094113Y3010355D01*
X4094291Y3010840D01*
Y3010865D01*
X4094317Y3010916D01*
X4094343Y3010992D01*
X4094368Y3011095D01*
X4094394Y3011222D01*
X4094445Y3011401D01*
X4094495Y3011579D01*
X4094546Y3011783D01*
X4094623Y3012293D01*
X4094700Y3012880D01*
X4094751Y3013543D01*
X4094776Y3014256D01*
Y3014282D01*
Y3014384D01*
Y3014512D01*
X4094751Y3014715D01*
Y3014945D01*
X4094725Y3015200D01*
X4094700Y3015506D01*
X4094674Y3015812D01*
X4094546Y3016501D01*
X4094394Y3017215D01*
X4094164Y3017878D01*
X4094011Y3018209D01*
X4093858Y3018490D01*
Y3018515D01*
X4093807Y3018566D01*
X4093756Y3018642D01*
X4093705Y3018744D01*
X4093501Y3018999D01*
X4093246Y3019305D01*
X4092914Y3019637D01*
X4092532Y3019968D01*
X4092099Y3020249D01*
X4091640Y3020479D01*
X4091588Y3020504D01*
X4091461Y3020530D01*
X4091231Y3020606D01*
X4090900Y3020682D01*
X4090492Y3020733D01*
X4089982Y3020810D01*
X4089676Y3020836D01*
X4089345D01*
X4089013Y3020861D01*
D02*
G37*
G36*
X4086055Y3217783D02*
Y3217757D01*
X4086030Y3217706D01*
Y3217604D01*
X4085979Y3217502D01*
X4085953Y3217324D01*
X4085902Y3217145D01*
X4085800Y3216712D01*
X4085673Y3216202D01*
X4085494Y3215641D01*
X4085316Y3215029D01*
X4085086Y3214391D01*
X4083173Y3209240D01*
X4089140D01*
X4087305Y3214085D01*
Y3214111D01*
X4087279Y3214187D01*
X4087228Y3214315D01*
X4087177Y3214468D01*
X4087101Y3214646D01*
X4087024Y3214876D01*
X4086948Y3215131D01*
X4086845Y3215386D01*
X4086642Y3215972D01*
X4086438Y3216584D01*
X4086233Y3217196D01*
X4086055Y3217783D01*
D02*
G37*
G36*
X4068664Y3217528D02*
X4064584D01*
Y3204064D01*
X4068766D01*
X4068945Y3204089D01*
X4069327Y3204115D01*
X4069760Y3204140D01*
X4070220Y3204191D01*
X4070678Y3204268D01*
X4071061Y3204370D01*
X4071112Y3204395D01*
X4071240Y3204421D01*
X4071418Y3204497D01*
X4071648Y3204599D01*
X4071903Y3204752D01*
X4072157Y3204905D01*
X4072412Y3205084D01*
X4072668Y3205288D01*
X4072693Y3205339D01*
X4072795Y3205441D01*
X4072948Y3205619D01*
X4073126Y3205874D01*
X4073331Y3206206D01*
X4073560Y3206588D01*
X4073764Y3207022D01*
X4073943Y3207506D01*
Y3207532D01*
X4073968Y3207583D01*
X4073994Y3207659D01*
X4074019Y3207761D01*
X4074044Y3207889D01*
X4074095Y3208067D01*
X4074146Y3208246D01*
X4074198Y3208450D01*
X4074274Y3208960D01*
X4074351Y3209546D01*
X4074401Y3210209D01*
X4074427Y3210923D01*
Y3210949D01*
Y3211051D01*
Y3211178D01*
X4074401Y3211382D01*
Y3211612D01*
X4074376Y3211867D01*
X4074351Y3212173D01*
X4074325Y3212479D01*
X4074198Y3213167D01*
X4074044Y3213881D01*
X4073815Y3214544D01*
X4073662Y3214876D01*
X4073509Y3215156D01*
Y3215182D01*
X4073458Y3215233D01*
X4073407Y3215309D01*
X4073356Y3215411D01*
X4073152Y3215666D01*
X4072897Y3215972D01*
X4072566Y3216304D01*
X4072183Y3216635D01*
X4071749Y3216916D01*
X4071291Y3217145D01*
X4071240Y3217171D01*
X4071112Y3217196D01*
X4070883Y3217273D01*
X4070551Y3217349D01*
X4070143Y3217400D01*
X4069633Y3217477D01*
X4069327Y3217502D01*
X4068995D01*
X4068664Y3217528D01*
D02*
G37*
%LPD*%
D19*
X3930000Y2965000D02*
Y3375000D01*
Y2965000D02*
X4425000D01*
Y3375000D01*
X3930000D02*
X4425000D01*
D22*
X4396181Y3229055D02*
G03*
X4396181Y3229055I-3937J0D01*
G01*
D23*
X4183500Y3216166D02*
X4196500D01*
Y3212666D02*
Y3216166D01*
X4183500Y3212666D02*
X4196500D01*
X4183500D02*
Y3216166D01*
X4196500Y3200666D02*
X4196500Y3197166D01*
X4183500Y3200666D02*
X4196500D01*
X4183500Y3197166D02*
X4183500Y3200666D01*
X4183500Y3197166D02*
X4196500D01*
X4183500Y3119000D02*
X4187000D01*
X4183500Y3101000D02*
X4187000D01*
Y3119000D01*
X4183500Y3101000D02*
Y3119000D01*
X4196500Y3101000D02*
Y3119000D01*
X4193000Y3101000D02*
Y3119000D01*
X4196500D01*
X4193000Y3101000D02*
X4196500D01*
X4183500Y3167833D02*
X4196500D01*
Y3164333D02*
Y3167833D01*
X4183500Y3164333D02*
X4196500D01*
X4183500D02*
Y3167833D01*
X4196500Y3152333D02*
X4196500Y3148833D01*
X4183500Y3152333D02*
X4196500D01*
X4183500Y3148833D02*
X4183500Y3152333D01*
X4183500Y3148833D02*
X4196500D01*
X4183500Y3264500D02*
X4196500D01*
Y3261000D02*
Y3264500D01*
X4183500Y3261000D02*
X4196500D01*
X4183500D02*
Y3264500D01*
X4196500Y3249000D02*
X4196500Y3245500D01*
X4183500Y3249000D02*
X4196500D01*
X4183500Y3245500D02*
X4183500Y3249000D01*
X4183500Y3245500D02*
X4196500D01*
D24*
X3935000Y3370000D02*
X4035000D01*
Y2970000D02*
Y3370000D01*
X3935000Y2970000D02*
Y3370000D01*
Y2970000D02*
X4035000D01*
D25*
X4295787Y3120787D02*
Y3219213D01*
X4394213Y3120787D02*
Y3219213D01*
D26*
X4123995Y3047741D02*
X4133995D01*
X4123995Y2991741D02*
Y3047741D01*
Y2991741D02*
X4133995D01*
X4134995Y3047741D02*
X4187995D01*
X4133995Y2993741D02*
Y3047741D01*
Y2991741D02*
X4187995D01*
X4221995Y3047741D02*
X4275995D01*
Y3045741D02*
Y3047741D01*
Y2991741D02*
Y3045741D01*
X4274995Y2991741D02*
X4275995D01*
X4221995D02*
X4274995D01*
%TF.MD5,68ab41222332927a5ed88c684cd4c3e5*%
M02*
