%TF.GenerationSoftware,Altium Limited,Altium Designer,22.1.2 (22)*%
G04 Layer_Physical_Order=2*
G04 Layer_Color=16711680*
%FSLAX26Y26*%
%MOIN*%
%TF.SameCoordinates,5B9E2C2C-6987-46B3-98D1-A965B82E178F*%
%TF.FilePolarity,Positive*%
%TF.FileFunction,Copper,L2,Bot,Signal*%
%TF.Part,Single*%
G01*
G75*
%TA.AperFunction,Conductor*%
%ADD15C,0.010000*%
%TA.AperFunction,ComponentPad*%
%ADD16C,0.066929*%
%ADD17R,0.066929X0.066929*%
%TA.AperFunction,ViaPad*%
%ADD18C,0.020000*%
G36*
X4425000Y2965000D02*
X3930000D01*
Y3375000D01*
X4425000D01*
Y2965000D01*
D02*
G37*
%LPC*%
G36*
X4022465Y3357465D02*
X3947535D01*
Y3282535D01*
X4022465D01*
Y3357465D01*
D02*
G37*
G36*
X4147785Y3304000D02*
X4142215D01*
X4137070Y3301869D01*
X4133131Y3297930D01*
X4131000Y3292785D01*
Y3287215D01*
X4133131Y3282070D01*
X4137070Y3278131D01*
X4142215Y3276000D01*
X4147785D01*
X4152930Y3278131D01*
X4155623Y3280824D01*
X4276199D01*
X4301000Y3256023D01*
Y3252215D01*
X4303131Y3247070D01*
X4306025Y3244176D01*
X4304593Y3239331D01*
X4304492Y3239176D01*
X4155623D01*
X4152930Y3241869D01*
X4147785Y3244000D01*
X4142215D01*
X4137070Y3241869D01*
X4133131Y3237930D01*
X4131000Y3232785D01*
Y3227215D01*
X4133131Y3222070D01*
X4137070Y3218131D01*
X4142215Y3216000D01*
X4147785D01*
X4152930Y3218131D01*
X4155623Y3220824D01*
X4320000D01*
X4323512Y3221522D01*
X4326489Y3223511D01*
X4348801Y3245824D01*
X4364377D01*
X4367070Y3243131D01*
X4372215Y3241000D01*
X4377785D01*
X4382930Y3243131D01*
X4386869Y3247070D01*
X4389000Y3252215D01*
Y3257785D01*
X4386869Y3262930D01*
X4382930Y3266869D01*
X4377785Y3269000D01*
X4372215D01*
X4367070Y3266869D01*
X4364377Y3264176D01*
X4345000D01*
X4341488Y3263478D01*
X4338511Y3261489D01*
X4334000Y3256977D01*
X4331891Y3257318D01*
X4328630Y3258678D01*
X4326869Y3262930D01*
X4322930Y3266869D01*
X4317785Y3269000D01*
X4313977D01*
X4286489Y3296489D01*
X4283512Y3298478D01*
X4280000Y3299176D01*
X4155623D01*
X4152930Y3301869D01*
X4147785Y3304000D01*
D02*
G37*
G36*
X3989932Y3257465D02*
X3980068D01*
X3970539Y3254911D01*
X3961996Y3249979D01*
X3955021Y3243004D01*
X3950089Y3234461D01*
X3947535Y3224932D01*
Y3215068D01*
X3950089Y3205539D01*
X3955021Y3196996D01*
X3961996Y3190021D01*
X3970539Y3185089D01*
X3980068Y3182535D01*
X3989932D01*
X3999461Y3185089D01*
X4008004Y3190021D01*
X4014979Y3196996D01*
X4019911Y3205539D01*
X4022465Y3215068D01*
Y3224932D01*
X4019911Y3234461D01*
X4014979Y3243004D01*
X4008004Y3249979D01*
X3999461Y3254911D01*
X3989932Y3257465D01*
D02*
G37*
G36*
Y3157465D02*
X3980068D01*
X3970539Y3154911D01*
X3961996Y3149979D01*
X3955021Y3143004D01*
X3950089Y3134461D01*
X3947535Y3124932D01*
Y3115068D01*
X3950089Y3105539D01*
X3955021Y3096996D01*
X3961996Y3090021D01*
X3970539Y3085089D01*
X3980068Y3082535D01*
X3989932D01*
X3999461Y3085089D01*
X4008004Y3090021D01*
X4014979Y3096996D01*
X4019911Y3105539D01*
X4022465Y3115068D01*
Y3124932D01*
X4019911Y3134461D01*
X4014979Y3143004D01*
X4008004Y3149979D01*
X3999461Y3154911D01*
X3989932Y3157465D01*
D02*
G37*
G36*
X4277785Y3184000D02*
X4272215D01*
X4267070Y3181869D01*
X4263131Y3177930D01*
X4261000Y3172785D01*
Y3167215D01*
X4263131Y3162070D01*
X4265824Y3159377D01*
Y3075623D01*
X4263131Y3072930D01*
X4261000Y3067785D01*
Y3062215D01*
X4263131Y3057070D01*
X4267070Y3053131D01*
X4272215Y3051000D01*
X4277785D01*
X4282930Y3053131D01*
X4286869Y3057070D01*
X4289000Y3062215D01*
Y3067785D01*
X4286869Y3072930D01*
X4284176Y3075623D01*
Y3159377D01*
X4286869Y3162070D01*
X4289000Y3167215D01*
Y3172785D01*
X4286869Y3177930D01*
X4282930Y3181869D01*
X4277785Y3184000D01*
D02*
G37*
G36*
X4097785Y3174000D02*
X4092215D01*
X4087070Y3171869D01*
X4083131Y3167930D01*
X4081000Y3162785D01*
Y3157215D01*
X4083131Y3152070D01*
X4085824Y3149377D01*
Y3120000D01*
X4086522Y3116488D01*
X4088511Y3113511D01*
X4143511Y3058511D01*
X4146488Y3056522D01*
X4150000Y3055824D01*
X4229377D01*
X4232070Y3053131D01*
X4237215Y3051000D01*
X4242785D01*
X4247930Y3053131D01*
X4251869Y3057070D01*
X4254000Y3062215D01*
Y3067785D01*
X4251869Y3072930D01*
X4247930Y3076869D01*
X4242785Y3079000D01*
X4237215D01*
X4232070Y3076869D01*
X4229377Y3074176D01*
X4153801D01*
X4104176Y3123801D01*
Y3149377D01*
X4106869Y3152070D01*
X4109000Y3157215D01*
Y3162785D01*
X4106869Y3167930D01*
X4102930Y3171869D01*
X4097785Y3174000D01*
D02*
G37*
G36*
X3989932Y3057465D02*
X3980068D01*
X3970539Y3054911D01*
X3961996Y3049979D01*
X3955021Y3043004D01*
X3950089Y3034461D01*
X3947535Y3024932D01*
Y3015068D01*
X3950089Y3005539D01*
X3955021Y2996996D01*
X3961996Y2990021D01*
X3970539Y2985089D01*
X3980068Y2982535D01*
X3989932D01*
X3999461Y2985089D01*
X4008004Y2990021D01*
X4014979Y2996996D01*
X4019911Y3005539D01*
X4022465Y3015068D01*
Y3024932D01*
X4019911Y3034461D01*
X4014979Y3043004D01*
X4008004Y3049979D01*
X3999461Y3054911D01*
X3989932Y3057465D01*
D02*
G37*
%LPD*%
D15*
X4145000Y3290000D02*
X4280000D01*
X4315000Y3255000D01*
X4345000D02*
X4375000D01*
X4320000Y3230000D02*
X4345000Y3255000D01*
X4145000Y3230000D02*
X4320000D01*
X4275000Y3065000D02*
Y3170000D01*
X4150000Y3065000D02*
X4240000D01*
X4095000Y3120000D02*
X4150000Y3065000D01*
X4095000Y3120000D02*
Y3160000D01*
D16*
X3985000Y3020000D02*
D03*
Y3120000D02*
D03*
Y3220000D02*
D03*
D17*
Y3320000D02*
D03*
D18*
X4145000Y3290000D02*
D03*
Y3230000D02*
D03*
X4275000Y3065000D02*
D03*
X4240000D02*
D03*
X4275000Y3170000D02*
D03*
X4095000Y3160000D02*
D03*
X4375000Y3255000D02*
D03*
X4315000D02*
D03*
%TF.MD5,5e7ade9f91ab9fb626317335fa06ebc7*%
M02*
