%TF.GenerationSoftware,Altium Limited,Altium Designer,22.1.2 (22)*%
G04 Layer_Color=8388736*
%FSLAX26Y26*%
%MOIN*%
%TF.SameCoordinates,5B9E2C2C-6987-46B3-98D1-A965B82E178F*%
%TF.FilePolarity,Negative*%
%TF.FileFunction,Soldermask,Top*%
%TF.Part,Single*%
G01*
G75*
%TA.AperFunction,ComponentPad*%
%ADD20C,0.072929*%
%ADD21R,0.072929X0.072929*%
%TA.AperFunction,SMDPad,CuDef*%
G04:AMPARAMS|DCode=27|XSize=26mil|YSize=26mil|CornerRadius=8mil|HoleSize=0mil|Usage=FLASHONLY|Rotation=90.000|XOffset=0mil|YOffset=0mil|HoleType=Round|Shape=RoundedRectangle|*
%AMROUNDEDRECTD27*
21,1,0.026000,0.010000,0,0,90.0*
21,1,0.010000,0.026000,0,0,90.0*
1,1,0.016000,0.005000,0.005000*
1,1,0.016000,0.005000,-0.005000*
1,1,0.016000,-0.005000,-0.005000*
1,1,0.016000,-0.005000,0.005000*
%
%ADD27ROUNDEDRECTD27*%
%ADD28R,0.015842X0.027654*%
%ADD29R,0.072929X0.045370*%
%ADD30R,0.056000X0.041000*%
G04:AMPARAMS|DCode=31|XSize=56mil|YSize=41mil|CornerRadius=0mil|HoleSize=0mil|Usage=FLASHONLY|Rotation=180.000|XOffset=0mil|YOffset=0mil|HoleType=Round|Shape=Octagon|*
%AMOCTAGOND31*
4,1,8,-0.028000,0.010250,-0.028000,-0.010250,-0.017750,-0.020500,0.017750,-0.020500,0.028000,-0.010250,0.028000,0.010250,0.017750,0.020500,-0.017750,0.020500,-0.028000,0.010250,0.0*
%
%ADD31OCTAGOND31*%

D20*
X3985000Y3020000D02*
D03*
Y3120000D02*
D03*
Y3220000D02*
D03*
D21*
Y3320000D02*
D03*
D27*
X4170000Y3206666D02*
D03*
X4210000D02*
D03*
Y3110000D02*
D03*
X4170000D02*
D03*
Y3158333D02*
D03*
X4210000D02*
D03*
X4170000Y3255000D02*
D03*
X4210000D02*
D03*
D28*
X4374528Y3216260D02*
D03*
X4354842D02*
D03*
X4335158D02*
D03*
X4315472D02*
D03*
X4374528Y3123740D02*
D03*
X4354842D02*
D03*
X4335158D02*
D03*
X4315472D02*
D03*
D29*
X4345000Y3170000D02*
D03*
D30*
X4239995Y3019741D02*
D03*
D31*
X4169995D02*
D03*
%TF.MD5,22f6968758d01ba3c3fa772718d0fa32*%
M02*
